<svg xmlns="http://www.w3.org/2000/svg" xmlns:xlink="http://www.w3.org/1999/xlink" width="301" zoomAndPan="magnify" viewBox="0 0 225.75 225.75" height="301" preserveAspectRatio="xMidYMid meet" version="1.0"><defs><g/><clipPath id="a3f739a51e"><path d="M 2.203125 1.820312 L 223.210938 1.820312 L 223.210938 225.074219 L 2.203125 225.074219 Z M 2.203125 1.820312 " clip-rule="nonzero"/></clipPath></defs><path fill="#3974f5" d="M 66.945312 60.171875 L 65.828125 58.75 L 66.230469 57.800781 C 64.550781 58.472656 60.632812 62.898438 58.972656 64.484375 C 56.890625 66.46875 54.503906 69.851562 52.738281 72.28125 C 49.394531 76.871094 46.703125 82.117188 44.640625 87.464844 C 44.066406 88.945312 44.011719 89.625 43.660156 91.265625 C 43.351562 92.707031 42.914062 93.410156 42.894531 95.097656 C 42.878906 96.480469 43.042969 98.289062 42.699219 99.558594 C 42.347656 100.871094 41.542969 101.753906 42.398438 103.230469 C 42.691406 103.734375 43.082031 104.09375 43.351562 104.667969 C 43.660156 105.324219 43.589844 105.878906 43.746094 106.652344 L 44.074219 105.121094 C 45.753906 105.179688 45.109375 107.585938 45.949219 109.5625 C 48.042969 114.503906 47.191406 117.679688 48.441406 119.824219 C 49.871094 122.285156 54.75 122.53125 56.21875 124.804688 C 56.867188 125.808594 56.449219 126.070312 57.707031 126.503906 C 64.132812 128.722656 61.53125 129.101562 63.195312 130.585938 C 63.554688 130.90625 64.597656 131.550781 65.085938 131.878906 C 65.710938 132.289062 66.46875 132.886719 67.308594 132.898438 L 67.707031 131.613281 C 69.078125 131.734375 71.671875 134.515625 71.011719 137.113281 C 70.746094 138.148438 70.015625 139.570312 69.953125 140.546875 C 69.84375 142.390625 71.34375 142.578125 71.007812 143.777344 C 70.644531 144.210938 70.074219 144.304688 69.691406 144.542969 C 69.566406 145.394531 70.597656 147.046875 71.078125 147.578125 C 72.253906 148.863281 76.644531 151.785156 77.214844 152.59375 C 77.578125 153.105469 77.425781 153.726562 77.6875 154.347656 C 78.023438 155.148438 79.175781 155.9375 80.097656 156.40625 C 81.082031 156.90625 82.261719 157.238281 83.324219 157.652344 C 86.355469 158.832031 86.042969 159.933594 86.984375 163.082031 C 88.027344 166.5625 90.191406 168.347656 91.023438 172.441406 C 91.902344 176.75 92.179688 176.660156 95.320312 179.449219 C 95.730469 179.8125 96.042969 180.054688 96.523438 180.476562 C 97.71875 181.535156 100.113281 183.625 102.773438 183.230469 C 102.25 182.273438 99.832031 181.570312 98.910156 180.644531 C 98.195312 179.925781 98.464844 179.308594 97.386719 178.816406 C 95.578125 177.992188 96.875 177.675781 97.339844 177.054688 C 96.953125 175.941406 95.890625 176.464844 96.8125 174.402344 C 97.429688 174.242188 98.171875 174.214844 98.640625 173.976562 C 99.167969 172.589844 97.960938 172.320312 97.761719 171.175781 C 98.941406 170.929688 100.726562 172.203125 101.484375 171.253906 C 102.113281 170.46875 101.542969 168.910156 102.5625 167.707031 C 103.203125 166.953125 104.589844 166.421875 104.0625 164.667969 C 103.914062 164.171875 103.4375 163.652344 103.535156 163.066406 C 103.613281 162.597656 104.25 162.195312 104.671875 161.847656 C 106.777344 160.097656 109.394531 162.035156 110.941406 158.867188 C 112.058594 156.585938 111.789062 152.226562 112.183594 151.953125 C 112.550781 151.695312 112.464844 151.871094 112.636719 151.878906 C 113.21875 151.902344 112.296875 151.957031 113.121094 151.964844 C 113.648438 151.207031 117.421875 148.339844 116.402344 146.464844 C 116 145.730469 114.710938 145.875 113.980469 145.167969 C 112.707031 143.929688 110.710938 143.402344 108.808594 143 C 107.097656 142.636719 107.019531 143.1875 105.820312 143.574219 C 105.605469 142.289062 105.519531 141.570312 103.941406 141.644531 C 102.367188 141.71875 102.144531 142.585938 101.207031 142.796875 C 101.109375 141.894531 101.472656 140.425781 100.21875 141.113281 C 99.476562 141.519531 98.34375 142.625 97.515625 142.511719 C 96.613281 140.605469 99.5625 140.476562 100.265625 139.109375 C 100.089844 138.28125 99.601562 138.167969 99.175781 137.492188 C 98.230469 135.992188 99.402344 135.726562 93.839844 134.539062 C 91.6875 134.082031 89.28125 133.988281 87.738281 132.34375 C 87.113281 131.679688 87.347656 131.136719 86.96875 130.238281 L 85.699219 130.15625 C 85.503906 129.730469 85.574219 129.636719 85.300781 129.246094 C 83.152344 129.0625 82.976562 130.449219 79.523438 129.714844 C 78.273438 129.449219 77.851562 128.523438 77.226562 128.652344 C 76.3125 128.835938 76.652344 130.453125 76.253906 131.160156 C 74.765625 130.949219 75.550781 128.574219 75.574219 127.476562 C 74.628906 127.859375 74.40625 128.839844 72.917969 129.296875 C 71.746094 129.660156 71.410156 129.738281 71.054688 130.78125 C 70.425781 132.640625 68.832031 130.863281 66.621094 130.84375 C 64.628906 130.824219 64 131.214844 63.773438 128.898438 C 63.632812 127.472656 63.867188 125.472656 63.042969 124.515625 C 61.964844 123.261719 60.335938 123.925781 58.910156 123.84375 C 58.453125 121.425781 61.101562 119.777344 59.484375 117.265625 C 57.382812 117.128906 57.230469 120.332031 54.792969 120.757812 C 52.074219 121.234375 52.570312 117.371094 51.992188 115.320312 C 51.195312 112.5 50.589844 111.617188 52.203125 108.898438 C 54.644531 104.792969 56.425781 107.726562 57.378906 107.347656 C 58.058594 106.765625 58.703125 105.359375 60.195312 106.15625 C 60.859375 106.511719 60.8125 106.742188 61.828125 106.707031 C 62.761719 106.675781 63.023438 106.445312 63.421875 107.234375 C 63.890625 108.15625 63.851562 109.386719 64.503906 110.617188 C 65.019531 111.585938 65.589844 112.867188 66.902344 112.761719 C 67.617188 110.242188 63.015625 107.738281 65.992188 104.832031 C 66.359375 104.472656 66.488281 104.265625 66.800781 103.886719 C 69.300781 100.84375 71.246094 100.941406 70.894531 98.804688 C 70.707031 97.664062 69.863281 95.367188 71.421875 94.773438 C 71.984375 94.5625 72.160156 95.027344 72.585938 95.273438 C 73.117188 93.90625 73.308594 93.917969 74.625 93.402344 L 74.570312 92.253906 C 75.15625 92.253906 76.40625 92.441406 76.867188 92.265625 C 77.679688 91.957031 77.394531 91.097656 77.867188 90.554688 C 78.261719 90.097656 79.140625 90.175781 79.730469 89.867188 C 80.816406 89.300781 81.210938 87.007812 82.839844 89.625 C 82.855469 89.652344 82.882812 89.703125 82.910156 89.738281 C 84.265625 86.296875 85.375 88.113281 86.367188 88.0625 C 87.023438 88.027344 90.507812 86.558594 89.746094 85.542969 C 88.59375 84.707031 87.074219 86.207031 85.21875 85.90625 C 84.832031 84.265625 85.328125 83.851562 84.203125 82.527344 C 81.347656 82.230469 81.058594 84.003906 79.742188 84.695312 C 79.585938 83.363281 81.515625 82.535156 82.652344 81.953125 C 85.300781 80.585938 85.660156 82.976562 91.945312 80.082031 C 93.15625 79.527344 95.355469 79.148438 95.636719 77.882812 C 94.96875 75.898438 92.445312 77.335938 91.601562 76.988281 C 91.574219 75.863281 92.886719 75.667969 93.464844 75.332031 C 92.527344 74.4375 91.082031 75.21875 89.464844 73.449219 C 89.679688 72.429688 90.414062 72.84375 89.875 71.058594 C 89.621094 70.226562 89.0625 69.4375 88.640625 68.984375 C 87.851562 69.3125 87.46875 70.1875 86.164062 70.796875 C 84.261719 71.691406 84.390625 71.027344 82.875 70.574219 C 83.363281 68.691406 86.484375 68.570312 82.226562 66.75 C 81.519531 66.445312 79.542969 66.3125 78.742188 66.273438 C 77.796875 67.234375 78.578125 67.648438 76.683594 69.78125 C 75.695312 70.890625 78.1875 71.875 76.503906 73.570312 C 75.402344 74.683594 74.332031 74.601562 73.738281 76.390625 C 73.261719 77.824219 73.035156 79.347656 72.210938 80.40625 C 70.90625 80.507812 70.273438 79.148438 70.226562 78.042969 C 70.183594 76.949219 71.003906 75.671875 71.238281 74.5625 C 70.550781 74.710938 70.097656 75.097656 69.535156 75.214844 C 68.6875 75.390625 68.957031 74.835938 68.09375 74.503906 C 67.308594 74.203125 66.910156 74.375 66.472656 73.734375 C 66.1875 73.316406 66.335938 73.324219 65.988281 72.941406 C 65.015625 71.871094 65.390625 72.277344 65.636719 70.984375 C 66.007812 69.046875 64.605469 69.628906 67.15625 67.570312 C 67.808594 67.042969 68.289062 66.660156 69.113281 66.179688 C 70.078125 65.617188 70.417969 65.441406 70.765625 64.3125 C 74.074219 64.355469 73.679688 62.351562 74.085938 61.28125 C 74.761719 61.121094 74.277344 62.132812 75.675781 61.097656 C 76.578125 60.429688 76.589844 60.320312 77.308594 61.082031 C 78.773438 60.402344 81.492188 59.433594 80.933594 57.191406 C 80.007812 57.15625 78.714844 58.074219 78.375 58.539062 C 77.730469 59.414062 77.558594 60.601562 76.242188 59.667969 C 76.183594 58.980469 76.488281 58.761719 76.738281 58.234375 C 75.816406 58.21875 76.210938 58.335938 76.070312 57.9375 L 77.800781 54.738281 C 76.863281 54.882812 75.867188 55.925781 75.402344 56.523438 C 74.71875 57.398438 74.410156 58.378906 73.539062 58.960938 C 72.953125 59.351562 70.703125 59.515625 69.90625 59.292969 C 67.25 58.546875 68.210938 59.683594 66.945312 60.171875 " fill-opacity="1" fill-rule="evenodd"/><path fill="#3974f5" d="M 152.75 70.230469 C 152.957031 69.917969 152.992188 69.890625 153.148438 69.375 C 153.335938 68.761719 153.179688 68.714844 153.683594 68.464844 C 154.082031 69.378906 153.578125 70.011719 154.472656 70.710938 C 155.363281 71.410156 157.921875 72.066406 158.335938 73.230469 C 158.601562 73.972656 157.75 74.710938 157.453125 75.378906 C 158.75 74.921875 159.332031 73.699219 159.128906 71.980469 C 158.949219 70.433594 158.28125 69.535156 157.308594 68.832031 C 154.539062 66.820312 154.785156 67.511719 155.011719 63.851562 C 155.0625 63.058594 154.710938 62.074219 154.878906 61.546875 C 155.984375 60.558594 156.949219 61.507812 157.144531 62.941406 C 157.363281 64.582031 157.28125 65.261719 158.179688 66.527344 C 161.140625 70.691406 162.453125 67.6875 164.3125 68.488281 C 163.957031 69.535156 163.074219 69.722656 162.699219 70.867188 C 163.160156 71.648438 164.246094 71.601562 163.589844 72.625 C 163.386719 72.765625 163.597656 72.742188 163.230469 72.753906 C 163.003906 72.757812 163.023438 72.742188 162.886719 72.691406 C 162.710938 72.625 162.527344 72.421875 162.160156 72.273438 C 162.476562 73.378906 163.582031 73.820312 163.695312 74.871094 C 162.910156 75.613281 161.9375 75.546875 160.933594 76.199219 C 160.027344 76.789062 159.589844 77.421875 157.910156 77.148438 C 153.867188 76.492188 156.425781 73.089844 154.636719 72.070312 C 154.308594 72.449219 153.945312 73.414062 154.09375 73.894531 C 154.613281 74.558594 156.453125 76.167969 154.632812 76.917969 C 152.625 77.746094 152.960938 77.21875 152.191406 79.582031 C 151.492188 81.71875 151.035156 83.121094 149.046875 84.089844 C 148.445312 84.386719 147.679688 84.460938 147.480469 85.058594 C 148.40625 85.730469 149.539062 85.367188 150.339844 86.167969 C 151.011719 86.835938 151.511719 87.941406 151.277344 89.203125 C 148.925781 90.746094 143.3125 87.847656 144.257812 92.722656 C 145.191406 97.527344 145.078125 97.117188 147.398438 97.71875 C 148.359375 97.96875 148.394531 98.679688 148.964844 98.84375 C 149.414062 98.972656 150.566406 98.492188 151.015625 98.332031 C 152.910156 97.65625 153.617188 95.027344 154.117188 93.296875 C 154.4375 92.195312 154.84375 92.679688 155.316406 91.789062 C 155.765625 90.945312 155.390625 90.15625 155.839844 89.609375 C 156.339844 88.992188 157.121094 89.214844 157.929688 89.414062 C 159.09375 89.703125 159.105469 89.050781 160.058594 88.804688 C 161.414062 89.296875 161.921875 90.675781 163.398438 91.464844 C 162.988281 90.40625 161.074219 89.15625 162.335938 87.519531 C 163.175781 87.460938 164.652344 88.664062 165.777344 89.066406 C 167.1875 89.566406 167.894531 90.339844 168.5625 91.546875 C 169.21875 92.742188 169.859375 93.757812 170.453125 94.910156 C 171.261719 96.46875 171.074219 97.714844 173.167969 97.210938 C 173.066406 96.269531 172.464844 96.316406 171.769531 95.667969 C 171.292969 95.222656 170.617188 94.84375 170.746094 93.792969 C 172.136719 92.878906 173.949219 93.667969 173.648438 90.953125 C 173.546875 90.027344 172.527344 86.25 173.125 85.808594 C 175.085938 85.097656 173.636719 88.367188 175.238281 87.660156 C 175.707031 87.242188 175.074219 86.390625 174.945312 85.914062 C 176.46875 85.550781 176.871094 87.359375 177.605469 88.398438 C 178.113281 89.121094 179.855469 90.769531 179.207031 91.925781 C 178.34375 92.472656 177.621094 91.335938 176.257812 91.527344 L 176.289062 93.175781 C 175.417969 93.574219 173.886719 93.902344 173.945312 95.085938 C 173.96875 95.570312 174.402344 96.179688 174.574219 96.691406 C 175.433594 99.261719 174.328125 98.34375 176.640625 98.433594 C 177.507812 98.464844 177.351562 98.773438 178.144531 98.941406 C 178.332031 98.480469 178.222656 98.402344 178.714844 98.066406 C 179.382812 98.703125 179.386719 99.367188 179.402344 100.519531 C 179.453125 104.515625 179.640625 104.785156 177.625 105.15625 C 177.203125 105.230469 175.785156 105.796875 175.207031 105.996094 C 174.785156 105.4375 174.492188 104.550781 174.097656 104.019531 C 173.734375 103.53125 172.925781 102.835938 172.019531 102.921875 C 171.257812 104.242188 172.230469 106.695312 170.117188 106.46875 C 169.308594 106.386719 167.507812 104.511719 167.054688 103.894531 C 166.066406 102.550781 164.710938 102.980469 163.546875 101.984375 C 161.730469 100.433594 163.429688 99.09375 163.230469 97.648438 C 161.59375 96.734375 160.628906 98.296875 159.359375 98.710938 C 158.476562 99 156.421875 98.773438 154.183594 99.273438 C 150.808594 100.023438 150.667969 99.652344 148.101562 101.792969 C 147.519531 102.277344 147.121094 102.445312 146.824219 103.386719 C 146.1875 105.429688 147.050781 106.1875 144.828125 106.972656 C 142.949219 107.636719 140.125 110.875 139.140625 112.769531 C 137.96875 115.023438 138.40625 115.089844 138.871094 117.285156 C 139.453125 120.039062 135.648438 120.273438 137.375 126.234375 C 138.605469 130.472656 139.625 130.171875 140.816406 131.402344 C 141.40625 132.011719 141.296875 132.125 142.191406 132.902344 C 145.050781 135.394531 145.035156 135.535156 147.953125 135.53125 C 148.984375 135.527344 149.207031 136.050781 150.226562 136.183594 C 152.574219 136.492188 154.25 134.175781 156.71875 134.121094 C 158.019531 134.09375 158.023438 134.597656 158 135.726562 L 160.394531 135.910156 C 160.34375 136.652344 159.820312 137.484375 159.628906 138.355469 C 158.851562 141.96875 161.257812 143.601562 161.195312 146.28125 C 161.132812 148.980469 157.746094 153.207031 156.546875 154.882812 C 153.921875 158.5625 152.441406 163.921875 149.921875 167.871094 C 149.109375 169.140625 147.007812 171.238281 147.363281 171.910156 C 148.40625 172.886719 150.019531 172.089844 150.945312 171.449219 C 155.71875 168.144531 161.332031 165.558594 164.574219 160.519531 C 166.21875 157.964844 167.839844 157.550781 169.4375 155.5 C 171.585938 152.742188 172.660156 149.214844 175.457031 146.851562 C 178.761719 144.058594 180.664062 138.007812 181.933594 133.714844 C 182.195312 132.839844 182.402344 132.644531 182 131.839844 C 181.433594 130.703125 181.648438 131.078125 181.515625 129.761719 C 180.75 129.113281 180.058594 129.328125 180.15625 127.796875 C 180.351562 124.804688 181.484375 126.410156 180.800781 118.859375 C 180.609375 116.757812 180.570312 114.726562 179.992188 112.800781 C 179.507812 111.199219 176.4375 106.578125 180.128906 107.253906 L 181.429688 111.691406 C 181.867188 113.269531 182.140625 114.839844 182.671875 116.335938 C 184.121094 120.398438 181.269531 125.84375 183.5 126.386719 C 184.515625 124.75 184.734375 115.890625 184.734375 113.4375 C 184.734375 107.828125 183.945312 101.707031 182.699219 96.542969 C 180.164062 86.042969 175.238281 76.011719 168.519531 67.984375 C 167.257812 66.480469 163.128906 61.433594 161.394531 60.890625 C 161.375 61.535156 161.578125 62.394531 161.921875 62.789062 C 162.464844 63.40625 162.90625 63.226562 162.246094 64.269531 C 160.65625 64.511719 160.609375 63.390625 159.875 62.761719 C 159.226562 62.207031 157.679688 61.59375 157.75 60.910156 C 158.265625 60.636719 158.753906 60.726562 159.503906 60.738281 C 159.09375 59.394531 155.445312 57.84375 154.238281 57.550781 C 152.574219 57.144531 151.808594 56.316406 151.398438 56.199219 C 149.683594 55.707031 150.21875 57.984375 150.492188 58.917969 C 150.976562 60.578125 150.371094 61.035156 150.21875 62.4375 C 150.03125 64.113281 150.800781 64.558594 149.925781 65.992188 C 149.34375 66.9375 148.703125 67.90625 149.75 68.90625 C 150.335938 69.46875 151.675781 70.378906 152.75 70.230469 " fill-opacity="1" fill-rule="evenodd"/><path fill="#3974f5" d="M 109.359375 43.324219 C 108.726562 44.09375 110.121094 43.9375 107.125 43.988281 C 106.191406 44.003906 105.277344 44.035156 104.355469 44.074219 C 104.632812 43.640625 104.574219 43.792969 104.578125 43.105469 C 100.859375 43.035156 101.277344 43.757812 100 43.410156 C 98.636719 43.039062 98.238281 43.757812 97.828125 43.746094 C 97.082031 43.722656 97.539062 43.542969 96.15625 43.953125 C 95.21875 44.230469 94.382812 44.671875 93.53125 44.972656 C 93.730469 45.324219 93.550781 45.414062 94.230469 45.507812 C 94.535156 45.550781 94.898438 45.429688 95.207031 45.382812 C 93.898438 46.300781 94.289062 45.214844 92.964844 45.964844 L 93.269531 44.753906 C 92.59375 44.773438 91.125 45.367188 90.523438 45.652344 C 89.445312 46.164062 89.039062 46.449219 88.484375 47.269531 C 88.617188 47.792969 88.542969 47.371094 88.628906 47.601562 C 88.789062 48.03125 88.6875 47.328125 88.796875 48.125 L 88.347656 48.507812 C 87.792969 48.398438 88.214844 48.613281 87.832031 47.890625 C 87.429688 48.300781 87.511719 48.433594 87.214844 48.710938 C 86.832031 49.066406 86.332031 48.761719 86.84375 49.671875 C 87.167969 50.007812 87.957031 49.574219 88.335938 49.5 C 89.542969 49.25 89.277344 49.617188 89.90625 49.980469 L 91.875 49.199219 L 91.828125 48.441406 C 92.351562 48.425781 93.367188 48.203125 93.875 48.058594 C 94.199219 47.96875 95.019531 47.539062 95.648438 47.289062 L 95.992188 48.027344 L 94.851562 48.554688 C 94.757812 51.996094 99.527344 48.59375 100.878906 50.652344 C 101.640625 51.8125 100.867188 52.800781 100.5 53.730469 C 99.894531 55.253906 101.507812 55.214844 101.066406 56.363281 C 100.523438 56.105469 100.15625 55.84375 99.472656 55.855469 C 98.480469 57.121094 99.324219 58.644531 101.109375 57.507812 L 101.675781 56.925781 C 101.917969 56.246094 101.5 57.105469 101.707031 56.722656 L 103.066406 56.78125 C 102.398438 58.269531 102.304688 57.375 101.402344 57.972656 C 100.785156 58.378906 101.515625 58.296875 100.253906 59.683594 C 99.632812 60.371094 99.886719 61.132812 100.136719 62.078125 C 100.445312 63.246094 100.460938 63.160156 101.5 63.582031 C 101.535156 64.613281 102.339844 66.75 102.828125 67.347656 C 103.21875 67.828125 103.761719 68.039062 104.582031 68.144531 C 106.109375 68.335938 105.585938 68.585938 106.40625 68.898438 C 107.886719 69.464844 108.914062 67.859375 109.269531 66.792969 C 109.574219 65.882812 109.691406 65.828125 110.25 65.222656 C 111.386719 63.988281 110.214844 63.46875 111.25 62.871094 C 111.433594 62.765625 111.488281 62.75 111.699219 62.6875 C 112.863281 62.347656 114.601562 62.449219 115.269531 61.949219 C 115.882812 61.492188 115.832031 60.988281 116.34375 60.316406 C 116.703125 59.847656 116.796875 59.898438 117.085938 59.59375 C 117.574219 59.074219 117.210938 59.082031 117.332031 58.789062 C 118.574219 58.78125 119.789062 58.914062 120.960938 58.550781 C 122.3125 58.128906 123.160156 57.660156 122.847656 56.488281 C 124.632812 56.640625 125.734375 55.222656 122.839844 53.714844 L 121.425781 52.847656 C 122.570312 52.359375 122.644531 53.347656 123.5 52.53125 C 123.378906 51.714844 123.375 52.371094 122.792969 51.730469 C 123.046875 51.242188 123.960938 50.917969 123.390625 49.992188 C 123.109375 49.539062 122.714844 49.652344 122.527344 49.046875 C 122.386719 48.59375 122.695312 48.835938 122.390625 48.535156 C 121.863281 48.101562 121.304688 48.089844 120.933594 47.652344 C 120.726562 46.925781 121.039062 47.195312 120.949219 46.5 C 120.804688 45.390625 120.003906 45.949219 121.089844 44.953125 C 121.921875 44.195312 121.335938 44.203125 121.328125 44.183594 C 120.046875 43.855469 118.921875 44.460938 117.824219 44.566406 C 117.574219 43.734375 117.707031 44.015625 117.792969 43.308594 C 116.480469 43.082031 115.042969 43.046875 113.664062 43.007812 L 112.066406 42.921875 C 110.902344 43.042969 112.648438 43.121094 109.359375 43.324219 " fill-opacity="1" fill-rule="evenodd"/><path fill="#3974f5" d="M 79.097656 55.71875 C 79.625 56.445312 80.597656 56.339844 81.660156 56.640625 C 82.929688 57 83.835938 56.78125 84.925781 56.710938 C 85.257812 57.300781 85.242188 57.546875 85.691406 58.023438 C 87.257812 59.683594 86.726562 59.503906 85 60.539062 C 84.09375 61.085938 84.144531 61.300781 83.6875 62.152344 C 82.910156 62.125 80.457031 61.671875 79.847656 63.265625 C 81.824219 64.296875 82.097656 63.324219 83.367188 63.152344 L 84.078125 64.488281 C 84.179688 64.886719 84.046875 64.851562 84.484375 66.070312 C 85.855469 65.929688 84.9375 65.703125 86.367188 66.277344 C 86.9375 66.503906 87.605469 66.820312 88.285156 66.699219 C 88.441406 65.753906 87.871094 65.429688 87.441406 64.753906 C 88.285156 65.050781 88.640625 65.589844 89.429688 65.835938 C 89.609375 65.667969 89.511719 65.757812 89.667969 65.542969 C 90.9375 63.804688 90.363281 65.878906 90.371094 63.027344 C 89.660156 62.710938 89.671875 62.6875 89.152344 62.109375 C 89.441406 61.179688 90.152344 60.574219 90.554688 61.761719 C 90.738281 62.304688 90.949219 62.820312 91.660156 63.046875 C 91.976562 62.761719 91.902344 62.753906 92.15625 62.441406 L 93.496094 61.386719 C 93.976562 61.152344 93.832031 61.492188 94.371094 60.984375 C 94.375 59.71875 93.3125 60.578125 92.351562 58.773438 C 91.3125 58.886719 91.011719 58.894531 90.578125 58.117188 C 91.738281 57.863281 92.023438 57.792969 92.019531 56.453125 C 90.355469 55.832031 91.835938 55.585938 90.253906 55.511719 C 90.472656 54.628906 89.660156 54.238281 88.976562 54.882812 C 88.71875 53.949219 88.355469 53.882812 87.742188 53.332031 C 88.226562 53.011719 89.292969 53.308594 88.796875 52.382812 C 88.238281 52.078125 87.21875 52.277344 86.65625 52.464844 L 86.398438 53.511719 L 85.570312 53.589844 C 85.957031 52.660156 86.214844 52.929688 86.371094 52.191406 C 85.707031 52.148438 84.738281 52.738281 84.167969 53.011719 C 83.105469 53.515625 83.253906 53.921875 82.457031 54.242188 C 82.984375 52.542969 84.667969 53.046875 84.808594 52.054688 C 83.804688 51.449219 81.050781 53.339844 80.164062 54.273438 Z M 79.097656 55.71875 " fill-opacity="1" fill-rule="evenodd"/><path fill="#3974f5" d="M 142.703125 73.257812 C 143.035156 73.316406 142.457031 73.234375 142.867188 73.226562 C 143.457031 73.214844 142.722656 73.207031 143.003906 73.226562 L 143.222656 74.214844 C 143.640625 74.289062 142.875 73.894531 143.671875 74.171875 C 145.089844 74.664062 143.605469 75.660156 145.757812 75.25 C 145.976562 76.035156 146.375 76.308594 146.5 77.246094 L 145.589844 77.632812 C 145.644531 77.707031 145.769531 77.785156 145.878906 77.875 L 146.21875 78.203125 L 145.78125 79.164062 C 146.402344 79.386719 146.640625 79.699219 147.351562 79.910156 C 147.144531 80.230469 147.34375 79.972656 147.101562 80.214844 L 146.023438 80.933594 L 146.4375 81.152344 C 146.671875 81.265625 146.734375 81.285156 146.984375 81.414062 L 147.457031 80.785156 C 147.839844 80.761719 152.804688 81.714844 151.132812 78.679688 C 151.019531 78.785156 151.027344 78.664062 150.839844 79.042969 C 150.574219 79.574219 150.785156 79.824219 150.808594 80.207031 C 150.808594 80.214844 150.8125 80.257812 150.800781 80.277344 C 150.09375 80.4375 150.6875 78.730469 150.324219 78.371094 C 150.027344 78.085938 150.132812 78.261719 149.84375 78.199219 C 149.785156 78.1875 149.605469 78.175781 149.550781 78.164062 C 148.578125 77.921875 149.679688 77.726562 147.234375 75.398438 C 146.230469 74.445312 147.210938 74.976562 145.8125 74.261719 C 145.777344 74.242188 145.730469 74.21875 145.695312 74.199219 C 145.660156 74.179688 145.609375 74.144531 145.582031 74.128906 C 145.550781 74.113281 145.496094 74.085938 145.460938 74.054688 C 145.699219 70.851562 145.277344 71.976562 143.65625 72.175781 C 143.28125 70.769531 143.730469 71.945312 143.945312 70.878906 C 142.121094 70.6875 142.34375 71.832031 142.703125 73.257812 " fill-opacity="1" fill-rule="evenodd"/><path fill="#3974f5" d="M 68.816406 56.457031 C 68.03125 56.730469 68.117188 56.742188 67.769531 57.324219 C 67.238281 58.21875 67.121094 57.597656 66.808594 58.273438 C 68.175781 58.566406 68.882812 57.722656 69.804688 57.789062 C 70.554688 57.839844 70.335938 58.277344 71.222656 57.9375 C 75.230469 56.410156 71.492188 56.234375 76.140625 53.066406 C 75.628906 56.164062 78.390625 52.835938 78.765625 52.699219 C 79.441406 52.453125 79.605469 52.589844 79.644531 51.753906 C 77.542969 51.601562 77.863281 53.09375 77.035156 52.632812 L 76.746094 52.375 C 75.851562 52.015625 74.367188 53.371094 74.046875 53.875 C 74.035156 52.195312 74.789062 53.097656 75.121094 51.894531 C 74.222656 51.496094 71.03125 54.050781 70 54.785156 C 69.746094 54.960938 69.402344 55.132812 69.160156 55.378906 C 68.605469 55.941406 68.992188 55.609375 68.816406 56.457031 " fill-opacity="1" fill-rule="evenodd"/><path fill="#3974f5" d="M 90.289062 84.539062 C 91.066406 85.035156 91.503906 84.835938 92.613281 84.769531 C 95.101562 84.621094 93.859375 84.980469 94.023438 85.738281 C 94.890625 86.050781 95.15625 85.636719 95.554688 85.125 C 96.105469 86.152344 96.507812 86.246094 97.730469 86.230469 C 97.734375 85.878906 97.769531 85.230469 97.714844 84.90625 C 97.558594 83.980469 97.582031 85.121094 97.320312 83.535156 L 97.089844 83.011719 C 96.792969 82.34375 97.550781 81.773438 95.007812 82.285156 C 94.792969 81.972656 94.925781 81.988281 94.710938 81.695312 L 94.375 81.371094 C 94.351562 81.351562 94.296875 81.316406 94.277344 81.300781 C 94.257812 81.285156 94.210938 81.257812 94.179688 81.230469 C 94.640625 80.742188 94.984375 80.507812 95.152344 79.601562 C 92.664062 79.941406 93.167969 81.386719 91.214844 83.023438 C 90.75 83.414062 90.328125 83.90625 90.289062 84.539062 " fill-opacity="1" fill-rule="evenodd"/><path fill="#3974f5" d="M 62.164062 117.050781 C 62.878906 116.777344 63.25 116.28125 64.078125 115.972656 L 64.949219 116.71875 C 65.828125 117.167969 68.042969 117.164062 68.816406 118.058594 C 68.679688 119.085938 68.539062 118.320312 68.226562 119.175781 C 69.640625 120.136719 70.8125 119.199219 71.5625 119.222656 C 71.917969 119.234375 72.28125 119.492188 72.558594 119.050781 C 72.972656 118.390625 71.886719 117.867188 71.414062 117.582031 C 70.800781 117.207031 70.324219 116.789062 69.683594 116.441406 C 66.867188 114.910156 59.585938 114.472656 62.164062 117.050781 " fill-opacity="1" fill-rule="evenodd"/><path fill="#3974f5" d="M 132.441406 62.578125 C 131.554688 61.09375 130.59375 61.449219 128.800781 61.9375 C 126.871094 62.457031 126.875 61.183594 124.996094 61.160156 C 125.003906 61.855469 125.234375 61.746094 125.378906 62.34375 C 125.585938 63.210938 124.042969 64.957031 127.585938 64.371094 C 128.800781 64.171875 129.445312 64.671875 130.640625 64.089844 C 131.207031 63.816406 132.191406 62.972656 132.441406 62.578125 " fill-opacity="1" fill-rule="evenodd"/><path fill="#3974f5" d="M 132.050781 45.011719 C 131.410156 45.285156 130.65625 46.027344 131.4375 46.703125 C 131.96875 47.164062 133.175781 46.835938 133.875 47.144531 C 134.476562 47.402344 135.667969 49.683594 137.894531 48.894531 C 139.453125 48.34375 136.648438 46.269531 136.164062 45.964844 C 135.011719 45.242188 136.089844 46.359375 134.265625 45.320312 C 133.707031 45 132.6875 44.746094 132.050781 45.011719 " fill-opacity="1" fill-rule="evenodd"/><path fill="#3974f5" d="M 141.398438 75.179688 C 141.34375 75.417969 141.46875 75.316406 141.777344 75.84375 L 140.1875 76.183594 C 140.484375 76.933594 140.734375 76.132812 140.277344 77.300781 C 140.472656 77.351562 140.398438 77.296875 140.617188 77.386719 C 141.015625 77.554688 140.765625 77.445312 140.9375 77.5625 C 140.867188 78.25 140.574219 79.128906 140.75 79.628906 C 140.785156 79.652344 140.84375 79.636719 140.867188 79.683594 L 141.40625 79.816406 C 143.390625 79.957031 144.988281 78.273438 143.296875 76.832031 C 143.320312 76.792969 143.371094 76.699219 143.382812 76.726562 C 143.398438 76.753906 143.449219 76.652344 143.46875 76.628906 C 143.488281 76.605469 143.53125 76.558594 143.554688 76.53125 C 143.574219 76.507812 143.609375 76.46875 143.632812 76.441406 C 143.796875 76.222656 143.800781 76.296875 143.910156 75.96875 C 143.6875 75.578125 143.5 75.464844 142.921875 75.25 C 142.695312 75.167969 142.390625 75.074219 142.15625 75.050781 Z M 141.398438 75.179688 " fill-opacity="1" fill-rule="evenodd"/><path fill="#3974f5" d="M 73.394531 120.082031 C 72.976562 120.046875 72.558594 119.96875 72.242188 120.1875 C 71.914062 120.417969 72.105469 120.070312 71.988281 120.542969 C 71.722656 121.644531 73.070312 120.953125 74.050781 121.335938 C 74.710938 121.589844 74.484375 122.585938 75.546875 121.898438 C 76.257812 121.441406 75.960938 121.019531 76.789062 120.730469 C 77.589844 120.453125 78.035156 120.640625 78.558594 120.132812 C 77.972656 119.097656 74.984375 118.519531 73.355469 118.894531 Z M 73.394531 120.082031 " fill-opacity="1" fill-rule="evenodd"/><path fill="#3974f5" d="M 83.191406 51.28125 C 84.371094 51.734375 85.40625 51.308594 86.71875 51.402344 C 88.117188 51.5 89.269531 51.480469 89.441406 50.234375 C 87.917969 49.753906 87.140625 50.222656 85.832031 50.09375 C 86.421875 49.640625 86.4375 49.910156 86.371094 48.996094 C 85.847656 48.660156 84.355469 48.074219 84.238281 49.183594 C 84.171875 49.804688 84.535156 49.734375 83.945312 50.226562 C 83.34375 50.734375 83.214844 50.300781 83.191406 51.28125 " fill-opacity="1" fill-rule="evenodd"/><path fill="#3974f5" d="M 162.429688 63.59375 C 149.671875 50.835938 132.042969 42.941406 112.574219 42.941406 C 93.105469 42.941406 75.476562 50.832031 62.71875 63.59375 C 49.960938 76.351562 42.070312 93.980469 42.070312 113.449219 C 42.070312 132.917969 49.960938 150.546875 62.71875 163.304688 C 75.476562 176.0625 93.105469 183.957031 112.574219 183.957031 C 132.042969 183.957031 149.671875 176.0625 162.429688 163.304688 C 175.1875 150.546875 183.082031 132.917969 183.082031 113.449219 C 183.082031 93.980469 175.1875 76.351562 162.429688 63.59375 M 112.574219 40.730469 C 132.65625 40.730469 150.835938 48.871094 163.992188 62.03125 C 177.152344 75.1875 185.292969 93.367188 185.292969 113.449219 C 185.292969 133.53125 177.152344 151.710938 163.992188 164.867188 C 150.835938 178.027344 132.65625 186.167969 112.574219 186.167969 C 92.496094 186.167969 74.316406 178.027344 61.15625 164.867188 C 47.996094 151.710938 39.855469 133.53125 39.855469 113.449219 C 39.855469 93.367188 47.996094 75.1875 61.15625 62.03125 C 74.316406 48.871094 92.496094 40.730469 112.574219 40.730469 Z M 112.574219 40.730469 " fill-opacity="1" fill-rule="nonzero"/><path fill="#3974f5" d="M 147.464844 52.164062 C 137.179688 46.296875 125.273438 42.941406 112.574219 42.941406 C 99.878906 42.941406 87.96875 46.296875 77.683594 52.164062 C 67.363281 58.054688 58.671875 66.480469 52.457031 76.59375 C 60.84375 80.902344 70.21875 84.332031 80.304688 86.6875 C 90.4375 89.058594 101.285156 90.34375 112.574219 90.34375 C 123.859375 90.34375 134.710938 89.058594 144.84375 86.6875 C 154.929688 84.332031 164.304688 80.902344 172.691406 76.59375 C 166.476562 66.480469 157.785156 58.054688 147.464844 52.164062 M 112.574219 40.730469 C 125.660156 40.730469 137.941406 44.191406 148.554688 50.246094 C 159.550781 56.523438 168.75 65.585938 175.191406 76.46875 L 175.78125 77.464844 L 174.753906 78.003906 C 165.9375 82.65625 156.027344 86.34375 145.347656 88.839844 C 135.046875 91.25 124.023438 92.554688 112.574219 92.554688 C 101.125 92.554688 90.105469 91.246094 79.800781 88.839844 C 69.121094 86.339844 59.210938 82.65625 50.394531 78.003906 L 49.371094 77.464844 L 49.957031 76.46875 C 56.398438 65.585938 65.601562 56.523438 76.597656 50.246094 C 87.207031 44.191406 99.488281 40.730469 112.574219 40.730469 Z M 112.574219 40.730469 " fill-opacity="1" fill-rule="nonzero"/><path fill="#3974f5" d="M 147.464844 174.730469 C 157.785156 168.84375 166.476562 160.417969 172.691406 150.304688 C 164.304688 145.996094 154.929688 142.566406 144.84375 140.210938 C 134.710938 137.839844 123.859375 136.554688 112.574219 136.554688 C 101.289062 136.554688 90.4375 137.839844 80.304688 140.210938 C 70.21875 142.566406 60.847656 145.996094 52.460938 150.304688 C 58.671875 160.417969 67.363281 168.84375 77.683594 174.730469 C 87.96875 180.601562 99.878906 183.957031 112.574219 183.957031 C 125.273438 183.957031 137.179688 180.601562 147.464844 174.730469 M 175.191406 150.429688 C 168.75 161.3125 159.550781 170.375 148.554688 176.648438 C 137.941406 182.707031 125.660156 186.167969 112.574219 186.167969 C 99.488281 186.167969 87.207031 182.707031 76.59375 176.648438 C 65.601562 170.375 56.398438 161.3125 49.957031 150.429688 L 49.367188 149.433594 L 50.394531 148.894531 C 59.210938 144.242188 69.121094 140.554688 79.800781 138.058594 C 90.105469 135.652344 101.125 134.347656 112.574219 134.347656 C 124.023438 134.347656 135.046875 135.652344 145.347656 138.058594 C 156.027344 140.554688 165.9375 144.242188 174.753906 148.894531 L 175.78125 149.433594 Z M 175.191406 150.429688 " fill-opacity="1" fill-rule="nonzero"/><path fill="#3974f5" d="M 145.78125 63.429688 C 137.25 50.773438 125.507812 42.941406 112.574219 42.941406 C 99.640625 42.941406 87.898438 50.773438 79.371094 63.429688 C 70.757812 76.214844 65.425781 93.898438 65.425781 113.449219 C 65.425781 133 70.757812 150.683594 79.371094 163.46875 C 87.898438 176.125 99.640625 183.957031 112.574219 183.957031 C 125.507812 183.957031 137.25 176.125 145.78125 163.46875 C 154.394531 150.683594 159.722656 133 159.722656 113.449219 C 159.722656 93.898438 154.394531 76.214844 145.78125 63.429688 M 112.574219 40.730469 C 126.289062 40.730469 138.675781 48.933594 147.609375 62.195312 C 156.460938 75.328125 161.933594 93.449219 161.933594 113.449219 C 161.933594 133.445312 156.460938 151.570312 147.609375 164.703125 C 138.675781 177.960938 126.289062 186.167969 112.574219 186.167969 C 98.859375 186.167969 86.472656 177.960938 77.539062 164.703125 C 68.691406 151.570312 63.214844 133.445312 63.214844 113.449219 C 63.214844 93.449219 68.691406 75.328125 77.539062 62.195312 C 86.472656 48.933594 98.859375 40.730469 112.574219 40.730469 Z M 112.574219 40.730469 " fill-opacity="1" fill-rule="nonzero"/><path fill="#3974f5" d="M 123.292969 63.0625 C 120.398438 50.632812 116.59375 42.941406 112.574219 42.941406 C 108.554688 42.941406 104.75 50.632812 101.855469 63.0625 C 98.859375 75.941406 97.003906 93.753906 97.003906 113.449219 C 97.003906 133.144531 98.859375 150.957031 101.855469 163.835938 C 104.75 176.265625 108.554688 183.957031 112.574219 183.957031 C 116.597656 183.957031 120.398438 176.265625 123.292969 163.835938 C 126.292969 150.957031 128.148438 133.144531 128.148438 113.449219 C 128.148438 93.753906 126.292969 75.941406 123.292969 63.0625 M 112.574219 40.730469 C 117.765625 40.730469 122.300781 49.074219 125.445312 62.5625 C 128.480469 75.601562 130.359375 93.59375 130.359375 113.449219 C 130.359375 133.304688 128.480469 151.296875 125.445312 164.335938 C 122.300781 177.824219 117.765625 186.167969 112.574219 186.167969 C 107.386719 186.167969 102.847656 177.824219 99.707031 164.335938 C 96.667969 151.296875 94.792969 133.304688 94.792969 113.449219 C 94.792969 93.59375 96.667969 75.601562 99.707031 62.558594 C 102.847656 49.074219 107.386719 40.730469 112.574219 40.730469 Z M 112.574219 40.730469 " fill-opacity="1" fill-rule="nonzero"/><g clip-path="url(#a3f739a51e)"><path fill="#3974f5" d="M 190.605469 35.417969 C 170.632812 15.449219 143.042969 3.09375 112.574219 3.09375 C 82.101562 3.09375 54.515625 15.449219 34.542969 35.417969 C 14.574219 55.390625 2.222656 82.976562 2.222656 113.449219 C 2.222656 143.921875 14.574219 171.507812 34.546875 191.476562 C 54.515625 211.449219 82.105469 223.804688 112.574219 223.804688 C 143.046875 223.804688 170.632812 211.449219 190.605469 191.476562 C 210.574219 171.507812 222.929688 143.921875 222.929688 113.449219 C 222.929688 82.976562 210.574219 55.390625 190.605469 35.417969 M 112.574219 1.820312 C 143.402344 1.820312 171.308594 14.316406 191.507812 34.515625 C 211.707031 54.714844 224.199219 82.621094 224.199219 113.449219 C 224.199219 144.277344 211.707031 172.183594 191.507812 192.382812 C 171.308594 212.582031 143.402344 225.078125 112.574219 225.078125 C 81.75 225.078125 53.839844 212.582031 33.640625 192.382812 C 13.441406 172.183594 0.949219 144.277344 0.949219 113.449219 C 0.949219 82.621094 13.441406 54.714844 33.640625 34.515625 C 53.839844 14.316406 81.75 1.820312 112.574219 1.820312 Z M 112.574219 1.820312 " fill-opacity="1" fill-rule="nonzero"/></g><path fill="#101664" d="M 112.574219 8.414062 L 112.574219 8.421875 L 112.574219 8.414062 C 83.578125 8.414062 57.320312 20.171875 38.308594 39.183594 C 19.300781 58.195312 7.542969 84.453125 7.542969 113.449219 L 7.546875 113.449219 L 7.542969 113.449219 C 7.542969 142.449219 19.300781 168.707031 38.308594 187.714844 C 57.320312 206.722656 83.578125 218.480469 112.574219 218.480469 L 112.574219 218.476562 L 112.578125 218.476562 L 112.578125 218.480469 C 141.574219 218.480469 167.832031 206.722656 186.839844 187.714844 C 205.851562 168.707031 217.609375 142.449219 217.609375 113.449219 L 217.601562 113.449219 L 217.609375 113.449219 C 217.609375 84.453125 205.851562 58.195312 186.839844 39.183594 C 167.832031 20.171875 141.574219 8.414062 112.574219 8.414062 M 112.574219 5.015625 L 112.574219 5.019531 C 142.523438 5.023438 169.632812 17.15625 189.25 36.773438 C 208.867188 56.394531 221.003906 83.5 221.003906 113.449219 L 221.007812 113.449219 L 221.003906 113.449219 C 221.003906 143.398438 208.867188 170.503906 189.25 190.125 C 169.632812 209.742188 142.523438 221.878906 112.574219 221.878906 L 112.574219 221.882812 L 112.574219 221.878906 C 82.625 221.878906 55.519531 209.742188 35.898438 190.125 C 16.28125 170.503906 4.148438 143.398438 4.148438 113.449219 L 4.140625 113.449219 L 4.148438 113.449219 C 4.148438 83.5 16.28125 56.394531 35.898438 36.773438 C 55.519531 17.15625 82.625 5.023438 112.574219 5.019531 Z M 112.574219 5.015625 " fill-opacity="1" fill-rule="nonzero"/><path fill="#101664" d="M 217.71875 115.417969 L 219.339844 115.953125 L 220.972656 116.386719 C 219.140625 123.222656 216.261719 126.84375 213.238281 128.621094 C 210.074219 130.484375 206.828125 130.320312 204.375 129.664062 C 202.246094 129.09375 200.089844 129.4375 198.328125 130.457031 L 198.320312 130.457031 C 196.558594 131.472656 195.183594 133.167969 194.613281 135.296875 C 194.042969 137.421875 194.386719 139.578125 195.402344 141.34375 L 195.40625 141.339844 C 196.425781 143.105469 198.121094 144.484375 200.246094 145.050781 C 203.117188 145.820312 206.578125 147.703125 208.203125 152.097656 C 209.296875 155.066406 209.507812 159.175781 207.988281 164.847656 L 204.699219 163.96875 C 206.011719 159.0625 205.882812 155.644531 205.007812 153.269531 C 203.878906 150.214844 201.414062 148.890625 199.367188 148.339844 C 196.335938 147.527344 193.921875 145.5625 192.464844 143.042969 L 192.464844 143.035156 C 191.011719 140.515625 190.515625 137.441406 191.328125 134.417969 C 192.140625 131.390625 194.105469 128.972656 196.625 127.519531 L 196.625 127.515625 C 199.144531 126.058594 202.222656 125.566406 205.25 126.375 C 207.019531 126.851562 209.332031 126.980469 211.523438 125.695312 C 213.851562 124.320312 216.121094 121.34375 217.683594 115.511719 Z M 217.71875 115.417969 " fill-opacity="1" fill-rule="nonzero"/><path fill="#101664" d="M 202.554688 133.632812 C 204.503906 133.632812 206.097656 135.140625 206.246094 137.050781 C 205.667969 136.117188 204.636719 135.5 203.460938 135.5 C 201.652344 135.5 200.1875 136.964844 200.1875 138.773438 C 200.1875 139.421875 200.375 140.03125 200.703125 140.539062 C 199.597656 139.898438 198.855469 138.703125 198.855469 137.335938 C 198.855469 135.292969 200.511719 133.632812 202.554688 133.632812 M 202.554688 132.304688 C 205.335938 132.304688 207.585938 134.558594 207.585938 137.335938 C 207.585938 140.117188 205.335938 142.367188 202.554688 142.367188 C 199.777344 142.367188 197.523438 140.117188 197.523438 137.335938 C 197.523438 134.558594 199.777344 132.304688 202.554688 132.304688 Z M 202.554688 132.304688 " fill-opacity="1" fill-rule="evenodd"/><path fill="#101664" d="M 7.433594 115.417969 L 5.808594 115.953125 L 4.179688 116.386719 C 6.011719 123.222656 8.886719 126.84375 11.910156 128.621094 C 15.078125 130.484375 18.324219 130.320312 20.777344 129.664062 C 22.90625 129.09375 25.058594 129.4375 26.824219 130.457031 L 26.828125 130.457031 C 28.589844 131.472656 29.964844 133.167969 30.535156 135.296875 C 31.105469 137.421875 30.761719 139.578125 29.746094 141.34375 L 29.742188 141.339844 C 28.722656 143.105469 27.03125 144.484375 24.902344 145.050781 C 22.035156 145.820312 18.570312 147.703125 16.949219 152.097656 C 15.851562 155.066406 15.644531 159.175781 17.164062 164.847656 L 20.449219 163.96875 C 19.136719 159.0625 19.265625 155.644531 20.144531 153.269531 C 21.269531 150.214844 23.734375 148.890625 25.78125 148.339844 C 28.8125 147.527344 31.230469 145.5625 32.683594 143.042969 L 32.683594 143.035156 C 34.140625 140.515625 34.632812 137.441406 33.824219 134.417969 C 33.011719 131.390625 31.046875 128.972656 28.523438 127.519531 L 28.527344 127.515625 C 26.003906 126.058594 22.929688 125.566406 19.898438 126.375 C 18.132812 126.851562 15.816406 126.980469 13.628906 125.695312 C 11.296875 124.320312 9.027344 121.34375 7.464844 115.511719 Z M 7.433594 115.417969 " fill-opacity="1" fill-rule="nonzero"/><path fill="#101664" d="M 22.59375 133.632812 C 20.648438 133.632812 19.050781 135.140625 18.90625 137.050781 C 19.480469 136.117188 20.511719 135.5 21.6875 135.5 C 23.496094 135.5 24.964844 136.964844 24.964844 138.773438 C 24.964844 139.421875 24.773438 140.03125 24.445312 140.539062 C 25.550781 139.898438 26.292969 138.703125 26.292969 137.335938 C 26.296875 135.292969 24.636719 133.632812 22.59375 133.632812 M 22.59375 132.304688 C 19.816406 132.304688 17.5625 134.558594 17.5625 137.335938 C 17.5625 140.117188 19.816406 142.367188 22.59375 142.367188 C 25.375 142.367188 27.625 140.117188 27.625 137.335938 C 27.625 134.558594 25.375 132.304688 22.59375 132.304688 Z M 22.59375 132.304688 " fill-opacity="1" fill-rule="evenodd"/><path fill="#101664" d="M 112.574219 39.433594 C 92.136719 39.433594 73.632812 47.71875 60.238281 61.113281 C 46.84375 74.503906 38.558594 93.007812 38.558594 113.449219 C 38.558594 133.890625 46.84375 152.394531 60.238281 165.785156 C 73.632812 179.179688 92.136719 187.464844 112.574219 187.464844 C 133.015625 187.464844 151.519531 179.179688 164.914062 165.785156 C 178.304688 152.394531 186.589844 133.890625 186.589844 113.449219 C 186.589844 93.011719 178.304688 74.503906 164.914062 61.113281 C 151.519531 47.71875 133.015625 39.433594 112.574219 39.433594 M 112.574219 35.722656 C 134.039062 35.722656 153.46875 44.421875 167.535156 58.488281 C 181.601562 72.554688 190.300781 91.984375 190.300781 113.449219 C 190.300781 134.914062 181.601562 154.34375 167.535156 168.410156 C 153.46875 182.476562 134.039062 191.175781 112.574219 191.175781 C 91.109375 191.175781 71.679688 182.476562 57.613281 168.410156 C 43.546875 154.34375 34.847656 134.914062 34.847656 113.449219 C 34.847656 91.984375 43.546875 72.554688 57.613281 58.488281 C 71.679688 44.421875 91.113281 35.722656 112.574219 35.722656 Z M 112.574219 35.722656 " fill-opacity="1" fill-rule="nonzero"/><path fill="#ffffff" d="M 89.847656 100.398438 L 73.277344 74.152344 L 99.527344 90.722656 L 112.574219 40.039062 L 125.625 90.722656 L 151.871094 74.152344 L 135.300781 100.398438 L 185.980469 113.449219 L 135.300781 126.5 L 151.871094 152.746094 L 125.625 136.175781 L 112.574219 186.855469 L 99.527344 136.175781 L 73.277344 152.746094 L 89.847656 126.5 L 39.167969 113.449219 Z M 89.847656 100.398438 " fill-opacity="1" fill-rule="evenodd"/><path fill="#101664" d="M 105.523438 113.449219 L 105.523438 111.148438 L 109.507812 113.449219 L 108.300781 112.75 L 108.300781 113.449219 Z M 101.019531 113.449219 L 101.019531 108.546875 L 103.796875 110.152344 L 103.796875 113.449219 Z M 96.515625 113.449219 L 96.515625 105.949219 L 99.292969 107.550781 L 99.292969 113.449219 Z M 92.011719 113.449219 L 92.011719 105.023438 L 94.015625 104.503906 L 94.789062 104.949219 L 94.789062 113.449219 Z M 87.507812 113.449219 L 87.507812 106.179688 L 90.285156 105.464844 L 90.285156 113.449219 Z M 83.003906 113.449219 L 83.003906 107.339844 L 85.902344 106.59375 L 85.78125 106.625 L 85.78125 113.449219 Z M 78.5 113.449219 L 78.5 108.5 L 81.277344 107.785156 L 81.277344 113.449219 Z M 73.996094 113.449219 L 73.996094 109.660156 L 76.773438 108.945312 L 76.773438 113.449219 Z M 69.492188 113.449219 L 69.492188 110.820312 L 72.269531 110.105469 L 72.269531 113.449219 Z M 64.988281 113.449219 L 64.988281 111.980469 L 67.765625 111.261719 L 67.765625 113.449219 Z M 60.484375 113.449219 L 60.484375 113.136719 L 63.261719 112.421875 L 63.261719 113.449219 Z M 92.0625 92.992188 C 92.234375 92.816406 92.234375 92.539062 92.0625 92.367188 C 91.890625 92.195312 91.613281 92.195312 91.4375 92.367188 C 91.265625 92.539062 91.265625 92.816406 91.4375 92.992188 C 91.613281 93.164062 91.890625 93.164062 92.0625 92.992188 Z M 92.167969 93.097656 C 92.511719 92.753906 92.511719 92.195312 92.167969 91.855469 C 91.824219 91.511719 91.269531 91.511719 90.925781 91.855469 C 90.585938 92.195312 90.582031 92.753906 90.925781 93.097656 C 91.269531 93.4375 91.824219 93.4375 92.167969 93.097656 Z M 94.96875 95.898438 C 95.214844 95.648438 95.214844 95.25 94.96875 95.003906 C 94.722656 94.757812 94.324219 94.757812 94.078125 95.003906 C 93.828125 95.25 93.828125 95.648438 94.078125 95.898438 C 94.324219 96.144531 94.722656 96.144531 94.96875 95.898438 Z M 95.121094 96.046875 C 95.609375 95.558594 95.609375 94.761719 95.121094 94.269531 C 94.628906 93.78125 93.835938 93.78125 93.34375 94.269531 C 92.851562 94.761719 92.851562 95.554688 93.34375 96.046875 C 93.835938 96.539062 94.628906 96.539062 95.121094 96.046875 Z M 103.445312 104.371094 C 103.617188 104.199219 103.898438 104.199219 104.070312 104.371094 C 104.242188 104.546875 104.242188 104.824219 104.070312 104.996094 C 103.898438 105.167969 103.617188 105.167969 103.445312 104.996094 C 103.273438 104.824219 103.273438 104.546875 103.445312 104.371094 Z M 103.339844 104.265625 C 103.683594 103.925781 104.238281 103.925781 104.582031 104.265625 C 104.925781 104.609375 104.925781 105.164062 104.582031 105.507812 C 104.238281 105.851562 103.683594 105.851562 103.339844 105.507812 C 102.996094 105.164062 102.996094 104.609375 103.339844 104.265625 Z M 100.539062 101.464844 C 100.785156 101.21875 101.1875 101.21875 101.433594 101.464844 C 101.679688 101.714844 101.679688 102.113281 101.433594 102.359375 C 101.1875 102.605469 100.785156 102.605469 100.539062 102.359375 C 100.292969 102.113281 100.292969 101.710938 100.539062 101.464844 Z M 100.386719 101.316406 C 100.878906 100.824219 101.671875 100.824219 102.164062 101.316406 C 102.65625 101.804688 102.65625 102.601562 102.164062 103.09375 C 101.675781 103.582031 100.878906 103.582031 100.386719 103.09375 C 99.898438 102.601562 99.898438 101.804688 100.386719 101.316406 Z M 96.632812 97.558594 C 97.007812 97.183594 97.617188 97.183594 97.992188 97.558594 C 98.367188 97.933594 98.367188 98.542969 97.992188 98.917969 C 97.617188 99.292969 97.007812 99.292969 96.632812 98.917969 C 96.257812 98.542969 96.257812 97.933594 96.632812 97.558594 Z M 96.402344 97.332031 C 97.148438 96.585938 98.359375 96.585938 99.105469 97.332031 C 99.851562 98.078125 99.851562 99.285156 99.105469 100.03125 C 98.359375 100.777344 97.148438 100.777344 96.402344 100.03125 C 95.65625 99.285156 95.65625 98.078125 96.402344 97.332031 Z M 101.1875 95.886719 L 84.441406 85.3125 L 95.011719 102.058594 L 109.621094 110.496094 Z M 112.574219 120.503906 L 110.273438 120.503906 L 112.574219 116.515625 L 111.875 117.722656 L 112.574219 117.722656 Z M 112.574219 125.003906 L 107.675781 125.003906 L 109.277344 122.226562 L 112.574219 122.230469 Z M 112.574219 129.507812 L 105.074219 129.507812 L 106.675781 126.730469 L 112.574219 126.730469 Z M 112.574219 134.015625 L 104.148438 134.015625 L 103.628906 132.007812 L 104.078125 131.234375 L 112.574219 131.234375 Z M 112.574219 138.515625 L 105.304688 138.515625 L 104.589844 135.742188 L 112.574219 135.738281 Z M 112.574219 143.019531 L 106.464844 143.019531 L 105.71875 140.121094 L 105.75 140.242188 L 112.574219 140.242188 Z M 112.574219 147.523438 L 107.625 147.527344 L 106.910156 144.746094 L 112.574219 144.746094 Z M 112.574219 152.027344 L 108.785156 152.027344 L 108.070312 149.253906 L 112.574219 149.253906 Z M 112.574219 156.53125 L 109.945312 156.53125 L 109.230469 153.753906 L 112.574219 153.753906 Z M 112.574219 161.035156 L 111.105469 161.035156 L 110.390625 158.257812 L 112.574219 158.257812 Z M 112.574219 165.542969 L 112.265625 165.542969 L 111.546875 162.765625 L 112.574219 162.765625 Z M 92.117188 133.960938 C 91.945312 133.785156 91.664062 133.785156 91.492188 133.960938 C 91.320312 134.132812 91.320312 134.414062 91.492188 134.582031 C 91.664062 134.753906 91.945312 134.757812 92.117188 134.582031 C 92.289062 134.414062 92.289062 134.132812 92.117188 133.960938 Z M 92.222656 133.855469 C 91.878906 133.511719 91.324219 133.511719 90.980469 133.855469 C 90.636719 134.199219 90.636719 134.753906 90.980469 135.097656 C 91.324219 135.441406 91.878906 135.441406 92.222656 135.097656 C 92.566406 134.753906 92.566406 134.199219 92.222656 133.855469 Z M 95.023438 131.054688 C 94.773438 130.808594 94.375 130.808594 94.128906 131.054688 C 93.882812 131.300781 93.882812 131.703125 94.128906 131.945312 C 94.375 132.195312 94.773438 132.195312 95.023438 131.945312 C 95.269531 131.703125 95.269531 131.300781 95.023438 131.054688 Z M 95.171875 130.902344 C 94.683594 130.414062 93.886719 130.414062 93.398438 130.902344 C 92.90625 131.394531 92.90625 132.191406 93.398438 132.679688 C 93.886719 133.171875 94.683594 133.171875 95.171875 132.679688 C 95.664062 132.191406 95.664062 131.394531 95.171875 130.902344 Z M 103.5 122.578125 C 103.324219 122.40625 103.324219 122.128906 103.5 121.957031 C 103.671875 121.78125 103.949219 121.78125 104.121094 121.957031 C 104.296875 122.128906 104.296875 122.40625 104.121094 122.578125 C 103.949219 122.75 103.671875 122.75 103.5 122.578125 Z M 103.390625 122.683594 C 103.050781 122.339844 103.050781 121.785156 103.390625 121.441406 C 103.734375 121.101562 104.292969 121.101562 104.632812 121.441406 C 104.976562 121.785156 104.976562 122.339844 104.632812 122.683594 C 104.292969 123.027344 103.734375 123.027344 103.390625 122.683594 Z M 100.59375 125.484375 C 100.347656 125.238281 100.347656 124.839844 100.59375 124.589844 C 100.839844 124.34375 101.238281 124.34375 101.484375 124.589844 C 101.734375 124.839844 101.734375 125.238281 101.484375 125.484375 C 101.238281 125.730469 100.839844 125.730469 100.59375 125.484375 Z M 100.441406 125.632812 C 99.949219 125.144531 99.949219 124.347656 100.441406 123.859375 C 100.933594 123.367188 101.726562 123.367188 102.21875 123.859375 C 102.707031 124.347656 102.707031 125.144531 102.21875 125.632812 C 101.726562 126.125 100.933594 126.125 100.441406 125.632812 Z M 96.683594 129.390625 C 96.308594 129.015625 96.308594 128.40625 96.683594 128.03125 C 97.0625 127.65625 97.667969 127.65625 98.042969 128.03125 C 98.417969 128.40625 98.417969 129.015625 98.042969 129.390625 C 97.667969 129.765625 97.0625 129.765625 96.683594 129.390625 Z M 96.457031 129.621094 C 95.710938 128.875 95.710938 127.664062 96.457031 126.917969 C 97.203125 126.171875 98.414062 126.171875 99.15625 126.917969 C 99.902344 127.664062 99.902344 128.875 99.160156 129.621094 C 98.414062 130.367188 97.203125 130.367188 96.457031 129.621094 Z M 95.011719 124.835938 L 84.441406 141.582031 L 101.1875 131.011719 L 109.621094 116.402344 Z M 119.628906 113.449219 L 119.628906 115.75 L 115.640625 113.449219 L 116.851562 114.148438 L 116.851562 113.449219 Z M 124.132812 113.449219 L 124.132812 118.347656 L 121.351562 116.746094 L 121.351562 113.449219 Z M 128.636719 113.449219 L 128.636719 120.949219 L 125.859375 119.347656 L 125.859375 113.449219 Z M 133.140625 113.449219 L 133.140625 121.875 L 131.132812 122.394531 L 130.363281 121.945312 L 130.363281 113.449219 Z M 137.644531 113.449219 L 137.644531 120.71875 L 134.867188 121.433594 L 134.867188 113.449219 Z M 142.144531 113.449219 L 142.144531 119.558594 L 139.246094 120.304688 L 139.371094 120.273438 L 139.371094 113.449219 Z M 146.652344 113.449219 L 146.652344 118.398438 L 143.871094 119.113281 L 143.871094 113.449219 Z M 151.15625 113.449219 L 151.15625 117.238281 L 148.378906 117.953125 L 148.378906 113.449219 Z M 155.660156 113.449219 L 155.660156 116.078125 L 152.882812 116.792969 L 152.882812 113.449219 Z M 160.164062 113.449219 L 160.164062 114.917969 L 157.386719 115.636719 L 157.386719 113.449219 Z M 164.667969 113.449219 L 164.667969 113.761719 L 161.890625 114.472656 L 161.890625 113.449219 Z M 133.085938 133.90625 C 132.914062 134.078125 132.914062 134.359375 133.085938 134.53125 C 133.257812 134.703125 133.539062 134.703125 133.710938 134.53125 C 133.882812 134.359375 133.882812 134.078125 133.710938 133.90625 C 133.539062 133.734375 133.257812 133.734375 133.085938 133.90625 Z M 132.980469 133.800781 C 132.636719 134.144531 132.636719 134.699219 132.980469 135.042969 C 133.324219 135.386719 133.878906 135.386719 134.222656 135.042969 C 134.566406 134.699219 134.566406 134.144531 134.222656 133.800781 C 133.878906 133.460938 133.324219 133.460938 132.980469 133.800781 Z M 130.179688 131 C 129.933594 131.25 129.933594 131.648438 130.179688 131.894531 C 130.425781 132.140625 130.828125 132.140625 131.074219 131.894531 C 131.320312 131.648438 131.320312 131.25 131.074219 131 C 130.828125 130.753906 130.425781 130.753906 130.179688 131 Z M 130.03125 130.851562 C 129.539062 131.34375 129.539062 132.136719 130.03125 132.628906 C 130.519531 133.117188 131.316406 133.117188 131.804688 132.628906 C 132.296875 132.136719 132.296875 131.34375 131.804688 130.851562 C 131.316406 130.359375 130.519531 130.359375 130.03125 130.851562 Z M 121.707031 122.527344 C 121.53125 122.699219 121.253906 122.699219 121.082031 122.527344 C 120.910156 122.355469 120.910156 122.074219 121.082031 121.902344 C 121.253906 121.730469 121.53125 121.730469 121.707031 121.902344 C 121.875 122.074219 121.875 122.355469 121.707031 122.527344 Z M 121.808594 122.632812 C 121.464844 122.972656 120.910156 122.972656 120.566406 122.632812 C 120.226562 122.285156 120.226562 121.734375 120.566406 121.390625 C 120.910156 121.046875 121.464844 121.046875 121.808594 121.390625 C 122.152344 121.734375 122.152344 122.289062 121.808594 122.632812 Z M 124.609375 125.433594 C 124.363281 125.675781 123.964844 125.675781 123.714844 125.433594 C 123.472656 125.183594 123.472656 124.785156 123.714844 124.539062 C 123.964844 124.292969 124.363281 124.292969 124.609375 124.539062 C 124.855469 124.785156 124.855469 125.183594 124.609375 125.433594 Z M 124.761719 125.582031 C 124.269531 126.074219 123.476562 126.074219 122.984375 125.582031 C 122.492188 125.089844 122.492188 124.296875 122.984375 123.804688 C 123.476562 123.316406 124.269531 123.316406 124.761719 123.804688 C 125.253906 124.296875 125.253906 125.089844 124.761719 125.582031 Z M 128.515625 129.339844 C 128.140625 129.714844 127.535156 129.714844 127.160156 129.335938 C 126.78125 128.964844 126.78125 128.355469 127.160156 127.980469 C 127.535156 127.601562 128.140625 127.601562 128.515625 127.980469 C 128.890625 128.355469 128.890625 128.964844 128.515625 129.339844 Z M 128.746094 129.566406 C 128 130.3125 126.789062 130.3125 126.042969 129.566406 C 125.296875 128.820312 125.296875 127.609375 126.042969 126.867188 C 126.789062 126.117188 128 126.117188 128.746094 126.863281 C 129.492188 127.609375 129.492188 128.820312 128.746094 129.566406 Z M 123.960938 131.011719 L 140.710938 141.582031 L 130.136719 124.835938 L 115.527344 116.402344 Z M 112.574219 106.398438 L 114.875 106.398438 L 112.574219 110.382812 L 113.273438 109.171875 L 112.574219 109.171875 Z M 112.574219 101.894531 L 117.476562 101.894531 L 115.871094 104.667969 L 112.574219 104.667969 Z M 112.574219 97.386719 L 120.074219 97.386719 L 118.472656 100.164062 L 112.574219 100.164062 Z M 112.574219 92.882812 L 121.003906 92.882812 L 121.519531 94.890625 L 121.070312 95.660156 L 112.574219 95.660156 Z M 112.574219 88.382812 L 119.84375 88.382812 L 120.558594 91.160156 L 112.574219 91.160156 Z M 112.574219 83.875 L 118.683594 83.875 L 119.429688 86.777344 L 119.398438 86.652344 L 112.574219 86.652344 Z M 112.574219 79.375 L 117.523438 79.375 L 118.238281 82.152344 L 112.574219 82.152344 Z M 112.574219 74.871094 L 116.363281 74.871094 L 117.078125 77.644531 L 112.574219 77.644531 Z M 112.574219 70.367188 L 115.203125 70.367188 L 115.921875 73.140625 L 112.574219 73.140625 Z M 112.574219 65.863281 L 114.046875 65.863281 L 114.761719 68.636719 L 112.574219 68.636719 Z M 112.574219 61.359375 L 112.886719 61.359375 L 113.601562 64.132812 L 112.574219 64.136719 Z M 133.035156 92.9375 C 133.203125 93.109375 133.484375 93.109375 133.65625 92.9375 C 133.828125 92.765625 133.828125 92.484375 133.65625 92.3125 C 133.484375 92.140625 133.203125 92.140625 133.035156 92.3125 C 132.859375 92.484375 132.859375 92.765625 133.035156 92.9375 Z M 132.925781 93.042969 C 133.269531 93.386719 133.828125 93.386719 134.167969 93.042969 C 134.511719 92.699219 134.511719 92.144531 134.167969 91.800781 C 133.824219 91.457031 133.269531 91.457031 132.925781 91.800781 C 132.585938 92.144531 132.585938 92.699219 132.925781 93.042969 Z M 130.128906 95.84375 C 130.375 96.089844 130.773438 96.089844 131.019531 95.84375 C 131.269531 95.597656 131.269531 95.195312 131.019531 94.949219 C 130.773438 94.703125 130.375 94.703125 130.128906 94.949219 C 129.878906 95.195312 129.878906 95.597656 130.128906 95.84375 Z M 129.976562 95.996094 C 130.464844 96.484375 131.261719 96.484375 131.753906 95.996094 C 132.242188 95.503906 132.242188 94.707031 131.753906 94.21875 C 131.261719 93.726562 130.46875 93.726562 129.976562 94.21875 C 129.484375 94.707031 129.484375 95.503906 129.976562 95.996094 Z M 121.652344 104.320312 C 121.824219 104.492188 121.824219 104.769531 121.652344 104.945312 C 121.480469 105.117188 121.199219 105.117188 121.027344 104.945312 C 120.855469 104.769531 120.855469 104.492188 121.027344 104.320312 C 121.199219 104.148438 121.480469 104.148438 121.652344 104.320312 Z M 121.757812 104.214844 C 122.097656 104.554688 122.097656 105.113281 121.757812 105.457031 C 121.414062 105.796875 120.859375 105.796875 120.515625 105.457031 C 120.171875 105.113281 120.171875 104.554688 120.515625 104.214844 C 120.859375 103.871094 121.414062 103.871094 121.757812 104.214844 Z M 124.558594 101.414062 C 124.804688 101.660156 124.804688 102.058594 124.558594 102.304688 C 124.308594 102.554688 123.910156 102.554688 123.664062 102.304688 C 123.417969 102.058594 123.417969 101.660156 123.664062 101.414062 C 123.910156 101.167969 124.308594 101.167969 124.558594 101.414062 Z M 124.707031 101.261719 C 125.199219 101.753906 125.199219 102.546875 124.707031 103.039062 C 124.21875 103.53125 123.421875 103.53125 122.929688 103.039062 C 122.441406 102.546875 122.441406 101.753906 122.929688 101.261719 C 123.421875 100.773438 124.21875 100.773438 124.707031 101.261719 Z M 128.464844 97.507812 C 128.839844 97.882812 128.839844 98.488281 128.464844 98.867188 C 128.089844 99.242188 127.480469 99.242188 127.105469 98.867188 C 126.730469 98.488281 126.730469 97.882812 127.105469 97.507812 C 127.480469 97.132812 128.089844 97.132812 128.464844 97.507812 Z M 128.691406 97.277344 C 129.4375 98.023438 129.4375 99.234375 128.691406 99.980469 C 127.945312 100.726562 126.738281 100.726562 125.992188 99.980469 C 125.246094 99.234375 125.246094 98.023438 125.992188 97.277344 C 126.738281 96.53125 127.945312 96.53125 128.691406 97.277344 Z M 130.136719 102.0625 L 140.710938 85.3125 L 123.960938 95.886719 L 115.527344 110.496094 Z M 53.125 113.449219 L 94.238281 102.863281 L 112.574219 113.449219 L 101.988281 95.113281 L 112.574219 53.996094 L 123.160156 95.113281 L 112.574219 113.449219 L 130.910156 102.863281 L 172.023438 113.449219 L 130.910156 124.035156 L 112.574219 113.449219 L 123.160156 131.785156 L 112.574219 172.898438 L 101.988281 131.785156 L 112.574219 113.449219 L 94.238281 124.035156 Z M 53.125 113.449219 " fill-opacity="1" fill-rule="evenodd"/><g fill="#101664" fill-opacity="1"><g transform="translate(30.649515, 115.500382)"><g><path d="M 0.09375 -2.09375 L -17.375 -2.921875 L -17.1875 -6.890625 L -3.4375 -6.234375 L -3.0625 -13.859375 L 0.65625 -13.6875 Z M 0.09375 -2.09375 "/></g></g></g><g fill="#101664" fill-opacity="1"><g transform="translate(30.997983, 101.042139)"><g><path d="M 3.03125 -9.9375 C 2.5625 -8.1875 1.769531 -6.734375 0.65625 -5.578125 C -0.457031 -4.421875 -1.773438 -3.640625 -3.296875 -3.234375 C -4.816406 -2.828125 -6.4375 -2.851562 -8.15625 -3.3125 C -9.875 -3.78125 -11.289062 -4.570312 -12.40625 -5.6875 C -13.519531 -6.800781 -14.265625 -8.140625 -14.640625 -9.703125 C -15.023438 -11.265625 -14.984375 -12.921875 -14.515625 -14.671875 C -14.035156 -16.441406 -13.238281 -17.898438 -12.125 -19.046875 C -11.019531 -20.191406 -9.703125 -20.972656 -8.171875 -21.390625 C -6.648438 -21.804688 -5.03125 -21.78125 -3.3125 -21.3125 C -1.59375 -20.851562 -0.179688 -20.0625 0.921875 -18.9375 C 2.035156 -17.8125 2.785156 -16.472656 3.171875 -14.921875 C 3.554688 -13.367188 3.507812 -11.707031 3.03125 -9.9375 Z M -7.109375 -7.21875 C -6.097656 -6.945312 -5.144531 -6.921875 -4.25 -7.140625 C -3.351562 -7.367188 -2.585938 -7.804688 -1.953125 -8.453125 C -1.316406 -9.109375 -0.863281 -9.929688 -0.59375 -10.921875 C -0.320312 -11.929688 -0.296875 -12.875 -0.515625 -13.75 C -0.742188 -14.625 -1.1875 -15.378906 -1.84375 -16.015625 C -2.507812 -16.648438 -3.347656 -17.101562 -4.359375 -17.375 C -5.367188 -17.65625 -6.316406 -17.679688 -7.203125 -17.453125 C -8.085938 -17.234375 -8.851562 -16.800781 -9.5 -16.15625 C -10.144531 -15.519531 -10.601562 -14.695312 -10.875 -13.6875 C -11.144531 -12.695312 -11.160156 -11.757812 -10.921875 -10.875 C -10.691406 -9.988281 -10.25 -9.226562 -9.59375 -8.59375 C -8.945312 -7.957031 -8.117188 -7.5 -7.109375 -7.21875 Z M -7.109375 -7.21875 "/></g></g></g><g fill="#101664" fill-opacity="1"><g transform="translate(36.43981, 81.139167)"><g><path d="M 1.015625 -1.828125 L -14.28125 -10.296875 L -12.640625 -13.25 L 0.40625 -14.84375 L -8.90625 -20 L -7 -23.453125 L 8.296875 -14.984375 L 6.671875 -12.046875 L -6.453125 -10.484375 L 2.921875 -5.296875 Z M 1.015625 -1.828125 "/></g></g></g><g fill="#101664" fill-opacity="1"><g transform="translate(45.615861, 64.389275)"><g><path d="M 7.1875 -7.28125 C 5.976562 -5.976562 4.625 -5.082031 3.125 -4.59375 C 1.625 -4.101562 0.109375 -4.03125 -1.421875 -4.375 C -2.953125 -4.726562 -4.375 -5.507812 -5.6875 -6.71875 C -6.988281 -7.925781 -7.878906 -9.273438 -8.359375 -10.765625 C -8.847656 -12.253906 -8.910156 -13.765625 -8.546875 -15.296875 C -8.179688 -16.835938 -7.398438 -18.253906 -6.203125 -19.546875 C -5.242188 -20.585938 -4.175781 -21.378906 -3 -21.921875 C -1.820312 -22.460938 -0.613281 -22.734375 0.625 -22.734375 C 1.863281 -22.742188 3.054688 -22.457031 4.203125 -21.875 L 1.3125 -18.75 C 0.457031 -18.96875 -0.382812 -18.929688 -1.21875 -18.640625 C -2.0625 -18.359375 -2.816406 -17.859375 -3.484375 -17.140625 C -4.160156 -16.398438 -4.59375 -15.582031 -4.78125 -14.6875 C -4.976562 -13.789062 -4.925781 -12.90625 -4.625 -12.03125 C -4.320312 -11.15625 -3.78125 -10.351562 -3 -9.625 C -2.226562 -8.914062 -1.394531 -8.441406 -0.5 -8.203125 C 0.394531 -7.972656 1.28125 -7.984375 2.15625 -8.234375 C 3.03125 -8.484375 3.832031 -9 4.5625 -9.78125 C 5.425781 -10.726562 5.90625 -11.734375 6 -12.796875 C 6.101562 -13.859375 5.847656 -14.84375 5.234375 -15.75 L 1.390625 -11.59375 L -0.859375 -13.671875 L 5.828125 -20.921875 C 6.992188 -19.972656 7.90625 -18.929688 8.5625 -17.796875 C 9.21875 -16.660156 9.609375 -15.484375 9.734375 -14.265625 C 9.859375 -13.046875 9.710938 -11.84375 9.296875 -10.65625 C 8.878906 -9.46875 8.175781 -8.34375 7.1875 -7.28125 Z M 7.1875 -7.28125 "/></g></g></g><g fill="#101664" fill-opacity="1"><g transform="translate(59.692835, 49.62637)"><g><path d="M 1.71875 -1.203125 L -8.328125 -15.515625 L -5.078125 -17.796875 L 2.828125 -6.53125 L 9.078125 -10.921875 L 11.21875 -7.875 Z M 1.71875 -1.203125 "/></g></g></g><g fill="#101664" fill-opacity="1"><g transform="translate(72.071186, 41.26671)"><g><path d="M 1.875 -0.9375 L -5.984375 -16.546875 L -2.4375 -18.34375 L 5.421875 -2.734375 Z M 1.875 -0.9375 "/></g></g></g><g fill="#101664" fill-opacity="1"><g transform="translate(79.607639, 37.068378)"><g><path d="M 6.625 -2.0625 L -5 -16.75 L -0.90625 -18.03125 L 3.140625 -12.78125 L 6.796875 -8.109375 L 7.5 -20.65625 L 11.546875 -21.921875 L 10.34375 -3.234375 Z M 6.625 -2.0625 "/></g></g></g><g fill="#101664" fill-opacity="1"><g transform="translate(96.732632, 31.874858)"><g><path d="M 2.078125 -0.203125 L 0.34375 -17.59375 L 11.78125 -18.75 L 12.109375 -15.421875 L 4.609375 -14.671875 L 4.96875 -11.078125 L 11.796875 -11.75 L 12.125 -8.4375 L 5.296875 -7.765625 L 5.671875 -3.96875 L 13.453125 -4.734375 L 13.796875 -1.375 Z M 2.078125 -0.203125 "/></g></g></g><g fill="#101664" fill-opacity="1"><g transform="translate(112.436093, 30.663047)"><g/></g></g><g fill="#101664" fill-opacity="1"><g transform="translate(119.004907, 30.677627)"><g><path d="M 2.0625 0.34375 L 4.984375 -16.890625 L 15.796875 -15.046875 L 15.1875 -11.5 L 8.296875 -12.671875 L 7.578125 -8.359375 L 13.828125 -7.296875 L 13.234375 -3.859375 L 6.984375 -4.921875 L 5.984375 1.015625 Z M 2.0625 0.34375 "/></g></g></g><g fill="#101664" fill-opacity="1"><g transform="translate(133.180679, 32.927441)"><g><path d="M 1.953125 0.75 L 8.1875 -15.59375 L 15.171875 -12.9375 C 16.410156 -12.457031 17.398438 -11.816406 18.140625 -11.015625 C 18.878906 -10.222656 19.335938 -9.304688 19.515625 -8.265625 C 19.703125 -7.234375 19.570312 -6.132812 19.125 -4.96875 C 18.664062 -3.769531 18 -2.84375 17.125 -2.1875 C 16.257812 -1.539062 15.25 -1.1875 14.09375 -1.125 L 15.328125 5.84375 L 11.03125 4.203125 L 10.0625 -1.984375 L 7.609375 -2.921875 L 5.671875 2.15625 Z M 8.75 -6.0625 L 11.5625 -4.984375 C 12.488281 -4.628906 13.273438 -4.570312 13.921875 -4.8125 C 14.566406 -5.0625 15.046875 -5.585938 15.359375 -6.390625 C 15.660156 -7.179688 15.648438 -7.878906 15.328125 -8.484375 C 15.003906 -9.097656 14.378906 -9.582031 13.453125 -9.9375 L 10.640625 -11.015625 Z M 8.75 -6.0625 "/></g></g></g><g fill="#101664" fill-opacity="1"><g transform="translate(149.675594, 39.359765)"><g><path d="M 1.765625 1.125 L 11.140625 -13.640625 L 20.84375 -7.484375 L 19.046875 -4.640625 L 12.6875 -8.6875 L 10.75 -5.640625 L 16.53125 -1.953125 L 14.75 0.859375 L 8.96875 -2.828125 L 6.921875 0.390625 L 13.515625 4.59375 L 11.703125 7.4375 Z M 1.765625 1.125 "/></g></g></g><g fill="#101664" fill-opacity="1"><g transform="translate(162.638403, 47.619787)"><g><path d="M 1.53125 1.4375 L 13.5 -11.3125 L 21.859375 -3.453125 L 19.5625 -1 L 14.078125 -6.15625 L 11.609375 -3.53125 L 16.609375 1.15625 L 14.328125 3.59375 L 9.328125 -1.09375 L 6.71875 1.6875 L 12.421875 7.03125 L 10.109375 9.484375 Z M 1.53125 1.4375 "/></g></g></g><g fill="#101664" fill-opacity="1"><g transform="translate(173.879535, 57.888379)"><g><path d="M 1.1875 1.71875 L 15.5625 -8.234375 L 19.5 -2.546875 C 20.550781 -1.023438 21.171875 0.507812 21.359375 2.0625 C 21.546875 3.625 21.3125 5.09375 20.65625 6.46875 C 20.007812 7.84375 18.976562 9.023438 17.5625 10.015625 C 16.125 11.003906 14.648438 11.554688 13.140625 11.671875 C 11.640625 11.796875 10.191406 11.492188 8.796875 10.765625 C 7.398438 10.046875 6.175781 8.925781 5.125 7.40625 Z M 6.453125 2.90625 L 8.09375 5.265625 C 8.675781 6.117188 9.363281 6.742188 10.15625 7.140625 C 10.945312 7.546875 11.785156 7.710938 12.671875 7.640625 C 13.554688 7.566406 14.414062 7.242188 15.25 6.671875 C 16.09375 6.078125 16.695312 5.378906 17.0625 4.578125 C 17.4375 3.785156 17.570312 2.945312 17.46875 2.0625 C 17.375 1.175781 17.03125 0.300781 16.4375 -0.5625 L 14.828125 -2.890625 Z M 6.453125 2.90625 "/></g></g></g><g fill="#101664" fill-opacity="1"><g transform="translate(184.861182, 73.556284)"><g><path d="M 3.359375 9.84375 C 2.710938 8.144531 2.5 6.5 2.71875 4.90625 C 2.945312 3.320312 3.554688 1.914062 4.546875 0.6875 C 5.546875 -0.53125 6.878906 -1.453125 8.546875 -2.078125 C 10.203125 -2.710938 11.804688 -2.898438 13.359375 -2.640625 C 14.921875 -2.390625 16.316406 -1.742188 17.546875 -0.703125 C 18.773438 0.328125 19.710938 1.691406 20.359375 3.390625 C 21.003906 5.097656 21.210938 6.742188 20.984375 8.328125 C 20.753906 9.910156 20.140625 11.316406 19.140625 12.546875 C 18.148438 13.773438 16.828125 14.707031 15.171875 15.34375 C 13.503906 15.96875 11.890625 16.148438 10.328125 15.890625 C 8.773438 15.628906 7.382812 14.984375 6.15625 13.953125 C 4.9375 12.921875 4.003906 11.550781 3.359375 9.84375 Z M 9.984375 1.703125 C 9.003906 2.066406 8.21875 2.597656 7.625 3.296875 C 7.039062 4.003906 6.679688 4.804688 6.546875 5.703125 C 6.410156 6.597656 6.523438 7.53125 6.890625 8.5 C 7.253906 9.46875 7.785156 10.242188 8.484375 10.828125 C 9.179688 11.410156 9.984375 11.765625 10.890625 11.890625 C 11.804688 12.023438 12.753906 11.910156 13.734375 11.546875 C 14.710938 11.171875 15.492188 10.632812 16.078125 9.9375 C 16.660156 9.238281 17.019531 8.4375 17.15625 7.53125 C 17.300781 6.632812 17.191406 5.703125 16.828125 4.734375 C 16.460938 3.765625 15.925781 2.988281 15.21875 2.40625 C 14.519531 1.832031 13.71875 1.476562 12.8125 1.34375 C 11.90625 1.207031 10.960938 1.328125 9.984375 1.703125 Z M 9.984375 1.703125 "/></g></g></g><g fill="#101664" fill-opacity="1"><g transform="translate(192.337136, 92.658373)"><g><path d="M 0.203125 2.078125 L 17.609375 0.375 L 17.9375 3.734375 L 9.515625 10.8125 L 19.140625 16.09375 L 19.46875 19.421875 L 2.0625 21.125 L 1.6875 17.203125 L 12.15625 16.1875 L 5.5625 12.546875 L 5.296875 9.8125 L 11.078125 4.984375 L 0.59375 6.015625 Z M 0.203125 2.078125 "/></g></g></g><g fill="#101664" fill-opacity="1"><g transform="translate(44.551103, 176.363083)"><g><path d="M 3.148438 0.101562 L 2.808594 0.429688 L 2.304688 -0.09375 L 2.648438 -0.421875 Z M 3.804688 1.46875 L 3.34375 0.988281 L 3.683594 0.660156 L 4.144531 1.140625 Z M 2.433594 1.855469 L 2.8125 1.496094 L 3.273438 1.976562 L 2.894531 2.339844 Z M 1.773438 0.414062 L 2.277344 0.9375 L 1.898438 1.296875 L 1.398438 0.773438 Z M 3.8125 -0.644531 L 4.476562 0.046875 L 5.292969 -0.734375 C 5.300781 -0.195312 5.300781 0.394531 5.269531 0.734375 L 6.296875 0.523438 C 6.273438 0.292969 6.136719 -0.496094 6.023438 -1.046875 L 6.871094 -0.160156 L 7.480469 -0.742188 L 7.125 -1.113281 C 7.429688 -1.214844 7.765625 -1.335938 8.117188 -1.460938 L 7.710938 -2.234375 C 7.390625 -2.050781 6.921875 -1.839844 6.5625 -1.699219 L 6.4375 -1.832031 L 7.335938 -2.695312 C 7.765625 -2.34375 8.199219 -2.003906 8.566406 -1.746094 L 8.730469 -2.675781 C 7.957031 -3.191406 6.820312 -4.167969 5.890625 -5.027344 C 5.816406 -4.8125 5.660156 -4.511719 5.527344 -4.34375 C 5.855469 -4.015625 6.230469 -3.667969 6.613281 -3.324219 L 5.773438 -2.523438 L 5.234375 -3.085938 L 5.644531 -2.851562 C 5.78125 -3.0625 5.953125 -3.453125 6.089844 -3.757812 L 5.441406 -4.15625 C 5.3125 -3.886719 5.140625 -3.546875 5.007812 -3.324219 L 4.558594 -3.792969 L 3.949219 -3.210938 L 4.839844 -2.28125 C 4.21875 -2.234375 3.472656 -2.285156 2.921875 -2.4375 C 2.835938 -2.152344 2.65625 -1.714844 2.503906 -1.449219 L -0.132812 1.078125 L 0.449219 1.683594 L 0.785156 1.363281 L 2.28125 2.925781 L 2.039062 3.160156 L 2.652344 3.800781 L 5.367188 1.203125 L 2.914062 -1.359375 C 3.453125 -1.3125 4.070312 -1.355469 4.652344 -1.445312 Z M 11.933594 1.238281 L 10.542969 -0.210938 L 9.855469 0.449219 L 10.597656 1.222656 L 8.800781 2.941406 C 9.085938 2.550781 9.472656 1.898438 9.75 1.378906 L 9.144531 0.953125 C 8.824219 1.515625 8.367188 2.207031 8.070312 2.597656 L 8.726562 3.015625 L 8.335938 3.390625 C 7.652344 3.390625 6.96875 3.375 6.539062 3.34375 L 10.425781 -0.378906 L 9.015625 -1.851562 L 8.316406 -1.183594 L 9.09375 -0.371094 L 7.367188 1.277344 C 7.625 0.859375 7.929688 0.257812 8.160156 -0.242188 L 7.53125 -0.632812 C 7.246094 -0.0507812 6.820312 0.691406 6.539062 1.097656 L 7.1875 1.453125 L 6.761719 1.859375 C 6.015625 1.878906 5.292969 1.875 4.8125 1.851562 L 4.5625 2.722656 C 4.964844 2.738281 5.410156 2.726562 5.867188 2.714844 L 4.390625 4.132812 C 4.296875 4.21875 4.242188 4.21875 4.164062 4.136719 C 4.082031 4.066406 3.847656 3.820312 3.628906 3.5625 C 3.527344 3.835938 3.320312 4.234375 3.152344 4.433594 C 3.527344 4.824219 3.816406 5.085938 4.128906 5.171875 C 4.425781 5.261719 4.683594 5.125 5.011719 4.808594 L 6.480469 3.398438 L 6.230469 4.226562 C 6.628906 4.234375 7.039062 4.230469 7.460938 4.226562 L 5.921875 5.703125 C 5.824219 5.796875 5.761719 5.789062 5.675781 5.699219 C 5.585938 5.609375 5.3125 5.335938 5.066406 5.050781 C 4.972656 5.328125 4.742188 5.746094 4.574219 5.949219 C 4.988281 6.382812 5.296875 6.675781 5.625 6.765625 C 5.949219 6.867188 6.207031 6.730469 6.5625 6.386719 Z M 11.933594 1.238281 "/></g></g></g><g fill="#101664" fill-opacity="1"><g transform="translate(52.611727, 184.601971)"><g><path d="M 4.878906 -2.359375 L 5.496094 -1.863281 L 6.164062 -2.691406 L 5.546875 -3.1875 L 6.863281 -4.820312 L 6.050781 -5.476562 L 4.734375 -3.84375 L 4.042969 -4.402344 L 3.375 -3.574219 L 4.066406 -3.015625 L 2.382812 -0.921875 C 1.988281 -1.050781 1.640625 -1.160156 1.355469 -1.265625 L 1.011719 -0.128906 C 1.851562 0.0898438 2.921875 0.332031 3.90625 0.542969 L 4.324219 -0.363281 C 4.035156 -0.449219 3.757812 -0.519531 3.46875 -0.605469 Z M 5.980469 3.207031 L 5.25 2.617188 L 5.597656 2.1875 L 6.328125 2.777344 Z M 7.277344 2.875 L 5.328125 1.300781 L 4.328125 2.542969 L 6.277344 4.113281 Z M 7.808594 2.863281 L 6.386719 4.625 L 3.808594 2.546875 L 5.226562 0.785156 Z M 2.253906 2.871094 L 3.035156 3.5 L 3.253906 3.230469 L 5.835938 5.308594 L 5.625 5.574219 L 6.453125 6.242188 L 9.179688 2.855469 L 4.988281 -0.523438 Z M 9.222656 1.074219 C 9.640625 1.003906 10.148438 0.878906 10.648438 0.710938 L 10.1875 -0.167969 C 9.800781 0.00390625 9.191406 0.191406 8.769531 0.265625 L 9.117188 0.992188 L 8.386719 0.402344 L 9.398438 -0.855469 L 11.046875 0.472656 L 11.640625 -0.261719 L 9.992188 -1.589844 L 10.417969 -2.117188 L 9.574219 -2.796875 L 9.152344 -2.269531 L 7.449219 -3.640625 L 6.855469 -2.902344 L 8.558594 -1.53125 L 7.542969 -0.277344 L 6.898438 -0.796875 L 7.644531 -0.707031 C 7.71875 -1.09375 7.710938 -1.730469 7.65625 -2.234375 L 6.761719 -2.371094 C 6.789062 -1.914062 6.777344 -1.339844 6.703125 -0.953125 L 5.574219 -1.863281 L 4.964844 -1.113281 L 9.777344 2.761719 L 10.382812 2.011719 Z M 9.222656 1.074219 "/></g></g></g><g fill="#101664" fill-opacity="1"><g transform="translate(61.662386, 191.739077)"><g><path d="M 5.316406 -1.574219 C 4.988281 -1.667969 4.65625 -1.773438 4.320312 -1.875 L 5.078125 -3.109375 L 5.917969 -2.597656 L 6.476562 -3.503906 L 5.632812 -4.015625 L 6.578125 -5.558594 L 5.613281 -6.148438 L 4.667969 -4.609375 L 3.648438 -5.234375 L 3.09375 -4.328125 L 4.113281 -3.703125 L 3.214844 -2.234375 C 2.734375 -2.394531 2.285156 -2.542969 1.910156 -2.671875 L 1.570312 -1.601562 L 2.625 -1.269531 L 1.550781 0.484375 C 1.480469 0.601562 1.417969 0.609375 1.296875 0.546875 C 1.191406 0.480469 0.859375 0.277344 0.550781 0.0664062 C 0.507812 0.390625 0.398438 0.867188 0.269531 1.128906 C 0.847656 1.484375 1.257812 1.699219 1.621094 1.71875 C 1.996094 1.734375 2.222656 1.554688 2.519531 1.066406 L 3.746094 -0.933594 C 4.132812 -0.824219 4.507812 -0.71875 4.886719 -0.613281 Z M 7.960938 1.804688 L 7.652344 2.308594 L 5.550781 1.019531 L 5.859375 0.519531 Z M 4.75 2.332031 L 5.082031 1.785156 L 7.183594 3.074219 L 6.851562 3.617188 Z M 3.121094 2.898438 L 4.050781 3.46875 L 4.269531 3.113281 L 6.371094 4.402344 L 6.175781 4.722656 L 7.144531 5.316406 L 9.429688 1.59375 L 5.421875 -0.859375 Z M 7.800781 -1.261719 C 7.332031 -1.550781 7.273438 -1.640625 7.464844 -1.957031 L 7.675781 -2.300781 C 8.777344 -1.898438 10.046875 -1.507812 11.09375 -1.332031 L 10.804688 -2.484375 C 10.101562 -2.5625 9.117188 -2.800781 8.167969 -3.101562 L 8.828125 -4.179688 L 7.847656 -4.78125 L 6.480469 -2.546875 C 5.898438 -1.601562 6.023438 -1.136719 7.167969 -0.4375 L 8.769531 0.542969 C 9.707031 1.117188 10.1875 0.980469 11.023438 -0.105469 C 10.78125 -0.320312 10.464844 -0.730469 10.351562 -1.003906 C 9.792969 -0.222656 9.644531 -0.132812 9.234375 -0.382812 Z M 7.800781 -1.261719 "/></g></g></g><g fill="#101664" fill-opacity="1"><g transform="translate(71.553615, 197.656534)"><g><path d="M 10.886719 -2.039062 L 11.328125 -3.019531 L 8.046875 -4.488281 C 8.167969 -4.6875 8.300781 -4.890625 8.417969 -5.082031 L 7.300781 -5.710938 C 7.1875 -5.484375 7.0625 -5.246094 6.925781 -4.988281 L 3.527344 -6.511719 L 3.089844 -5.53125 L 6.378906 -4.058594 C 6.246094 -3.832031 6.117188 -3.636719 5.988281 -3.441406 L 3.128906 -4.71875 L 0.515625 1.121094 L 1.574219 1.59375 L 3.757812 -3.285156 L 7.011719 -1.828125 C 6.796875 -1.53125 6.46875 -1.160156 6.183594 -0.875 L 4.894531 -1.449219 L 5.421875 -1.375 C 5.46875 -1.667969 5.480469 -2.140625 5.457031 -2.511719 L 4.535156 -2.679688 C 4.546875 -2.347656 4.519531 -1.9375 4.480469 -1.636719 L 3.800781 -1.941406 L 3.4375 -1.128906 L 4.886719 -0.480469 L 4.628906 0.09375 L 2.996094 -0.636719 L 2.617188 0.207031 L 4.25 0.9375 L 3.664062 2.246094 L 4.652344 2.6875 L 5.238281 1.382812 L 6.921875 2.136719 L 7.300781 1.289062 L 5.617188 0.535156 L 5.871094 -0.0390625 L 7.363281 0.628906 L 7.726562 -0.183594 L 7.082031 -0.472656 C 7.332031 -0.699219 7.597656 -0.960938 7.867188 -1.230469 L 7.066406 -1.804688 L 8.75 -1.046875 L 7.039062 2.769531 C 6.976562 2.910156 6.914062 2.9375 6.753906 2.863281 C 6.617188 2.816406 6.0625 2.566406 5.652344 2.351562 C 5.671875 2.65625 5.660156 3.105469 5.585938 3.390625 C 6.292969 3.707031 6.816406 3.929688 7.234375 3.949219 C 7.660156 3.960938 7.890625 3.777344 8.121094 3.265625 L 10.265625 -1.523438 L 7.027344 -2.972656 C 7.167969 -3.164062 7.304688 -3.359375 7.449219 -3.578125 Z M 10.886719 -2.039062 "/></g></g></g><g fill="#101664" fill-opacity="1"><g transform="translate(82.067305, 202.108567)"><g/></g></g><g fill="#101664" fill-opacity="1"><g transform="translate(86.273898, 203.559185)"><g><path d="M 3.734375 -4.703125 L 3.265625 -2.96875 L 6.28125 -2.15625 L 5.953125 -0.953125 L 2.9375 -1.765625 L 2.296875 0.625 L 0.765625 0.203125 L 2.53125 -6.328125 L 7.484375 -4.984375 L 7.15625 -3.78125 Z M 3.734375 -4.703125 "/></g></g></g><g fill="#101664" fill-opacity="1"><g transform="translate(93.968742, 205.576323)"><g><path d="M 5.4375 -0.5625 L 2.34375 -1.078125 L 1.5 0.25 L -0.09375 -0.015625 L 4.015625 -6.1875 L 5.546875 -5.921875 L 7.390625 1.25 L 5.78125 0.984375 Z M 5.140625 -1.8125 L 4.515625 -4.546875 L 3.03125 -2.171875 Z M 5.140625 -1.8125 "/></g></g></g><g fill="#101664" fill-opacity="1"><g transform="translate(103.057963, 207.028885)"><g><path d="M 7.421875 -6.3125 L 7 0.4375 L 5.703125 0.359375 L 2.59375 -3.953125 L 2.34375 0.140625 L 0.796875 0.046875 L 1.21875 -6.703125 L 2.515625 -6.625 L 5.625 -2.3125 L 5.875 -6.40625 Z M 7.421875 -6.3125 "/></g></g></g><g fill="#101664" fill-opacity="1"><g transform="translate(112.665689, 207.541815)"><g><path d="M 8.140625 0.34375 C 7.929688 0.625 7.675781 0.84375 7.375 1 C 7.082031 1.164062 6.75 1.253906 6.375 1.265625 C 5.875 1.285156 5.414062 1.195312 5 1 C 4.582031 0.800781 4.097656 0.441406 3.546875 -0.078125 C 2.929688 -0.128906 2.375 -0.300781 1.875 -0.59375 C 1.382812 -0.894531 0.992188 -1.285156 0.703125 -1.765625 C 0.410156 -2.242188 0.25 -2.789062 0.21875 -3.40625 C 0.1875 -4.0625 0.316406 -4.664062 0.609375 -5.21875 C 0.898438 -5.769531 1.320312 -6.207031 1.875 -6.53125 C 2.425781 -6.863281 3.050781 -7.046875 3.75 -7.078125 C 4.457031 -7.109375 5.097656 -6.984375 5.671875 -6.703125 C 6.242188 -6.429688 6.703125 -6.035156 7.046875 -5.515625 C 7.390625 -4.992188 7.578125 -4.40625 7.609375 -3.75 C 7.640625 -2.957031 7.453125 -2.253906 7.046875 -1.640625 C 6.640625 -1.023438 6.082031 -0.585938 5.375 -0.328125 C 5.539062 -0.171875 5.695312 -0.0625 5.84375 0 C 6 0.0703125 6.164062 0.101562 6.34375 0.09375 C 6.757812 0.0703125 7.113281 -0.109375 7.40625 -0.453125 Z M 1.8125 -3.484375 C 1.832031 -3.054688 1.941406 -2.679688 2.140625 -2.359375 C 2.335938 -2.046875 2.597656 -1.800781 2.921875 -1.625 C 3.253906 -1.457031 3.617188 -1.382812 4.015625 -1.40625 C 4.421875 -1.425781 4.78125 -1.535156 5.09375 -1.734375 C 5.40625 -1.929688 5.644531 -2.195312 5.8125 -2.53125 C 5.988281 -2.875 6.066406 -3.257812 6.046875 -3.6875 C 6.023438 -4.101562 5.910156 -4.46875 5.703125 -4.78125 C 5.503906 -5.101562 5.238281 -5.347656 4.90625 -5.515625 C 4.582031 -5.679688 4.21875 -5.753906 3.8125 -5.734375 C 3.414062 -5.710938 3.0625 -5.601562 2.75 -5.40625 C 2.4375 -5.21875 2.195312 -4.953125 2.03125 -4.609375 C 1.863281 -4.273438 1.789062 -3.898438 1.8125 -3.484375 Z M 1.8125 -3.484375 "/></g></g></g><g fill="#101664" fill-opacity="1"><g transform="translate(122.542583, 206.905221)"><g><path d="M -0.078125 -6.8125 L 1.484375 -7.015625 L 2.359375 -0.3125 L 0.796875 -0.109375 Z M -0.078125 -6.8125 "/></g></g></g><g fill="#101664" fill-opacity="1"><g transform="translate(127.412773, 206.28614)"><g><path d="M 4.859375 -2.515625 L 1.78125 -1.859375 L 1.484375 -0.3125 L -0.09375 0.015625 L 1.484375 -7.234375 L 3 -7.546875 L 7.34375 -1.546875 L 5.734375 -1.203125 Z M 4.109375 -3.5625 L 2.53125 -5.890625 L 2.015625 -3.125 Z M 4.109375 -3.5625 "/></g></g></g><g fill="#101664" fill-opacity="1"><g transform="translate(136.401765, 204.305869)"><g><path d="M 4.59375 -8.59375 L 6.671875 -2.15625 L 5.4375 -1.765625 L 0.96875 -4.625 L 2.234375 -0.71875 L 0.765625 -0.25 L -1.3125 -6.6875 L -0.09375 -7.078125 L 4.390625 -4.21875 L 3.125 -8.125 Z M 4.59375 -8.59375 "/></g></g></g><g fill="#101664" fill-opacity="1"><g transform="translate(145.51328, 201.251303)"><g><path d="M 3.484375 -5.375 L 4.796875 -5.953125 L 5.921875 -3.453125 C 5.691406 -3.035156 5.382812 -2.664062 5 -2.34375 C 4.625 -2.019531 4.21875 -1.757812 3.78125 -1.5625 C 3.125 -1.269531 2.476562 -1.144531 1.84375 -1.1875 C 1.21875 -1.238281 0.648438 -1.441406 0.140625 -1.796875 C -0.367188 -2.148438 -0.757812 -2.632812 -1.03125 -3.25 C -1.300781 -3.863281 -1.394531 -4.476562 -1.3125 -5.09375 C -1.238281 -5.707031 -1.003906 -6.265625 -0.609375 -6.765625 C -0.222656 -7.273438 0.289062 -7.671875 0.9375 -7.953125 C 1.488281 -8.191406 2.023438 -8.316406 2.546875 -8.328125 C 3.078125 -8.335938 3.566406 -8.238281 4.015625 -8.03125 L 3.46875 -6.78125 C 2.820312 -7.039062 2.1875 -7.03125 1.5625 -6.75 C 1.175781 -6.582031 0.863281 -6.347656 0.625 -6.046875 C 0.394531 -5.753906 0.257812 -5.421875 0.21875 -5.046875 C 0.175781 -4.671875 0.242188 -4.285156 0.421875 -3.890625 C 0.597656 -3.503906 0.835938 -3.195312 1.140625 -2.96875 C 1.441406 -2.75 1.78125 -2.617188 2.15625 -2.578125 C 2.53125 -2.546875 2.910156 -2.617188 3.296875 -2.796875 C 3.710938 -2.984375 4.046875 -3.242188 4.296875 -3.578125 Z M 3.484375 -5.375 "/></g></g></g><g fill="#101664" fill-opacity="1"><g transform="translate(153.832275, 197.384563)"><g><path d="M 1.140625 -0.53125 C 0.910156 -0.414062 0.671875 -0.390625 0.421875 -0.453125 C 0.179688 -0.523438 -0.00390625 -0.679688 -0.140625 -0.921875 C -0.265625 -1.160156 -0.285156 -1.398438 -0.203125 -1.640625 C -0.117188 -1.878906 0.0351562 -2.054688 0.265625 -2.171875 C 0.492188 -2.296875 0.726562 -2.328125 0.96875 -2.265625 C 1.207031 -2.203125 1.390625 -2.050781 1.515625 -1.8125 C 1.648438 -1.570312 1.675781 -1.328125 1.59375 -1.078125 C 1.519531 -0.835938 1.367188 -0.65625 1.140625 -0.53125 Z M 1.140625 -0.53125 "/></g></g></g><g fill="#101664" fill-opacity="1"><g transform="translate(157.700962, 195.445782)"><g><path d="M 5.40625 -11.765625 L 7.34375 -4.90625 L 5.9375 -3.96875 L 2.140625 -6.953125 L 3.421875 -2.28125 L 2.03125 -1.359375 L -3.578125 -5.75 L -2.234375 -6.65625 L 1.671875 -3.546875 L 0.359375 -8.390625 L 1.5625 -9.1875 L 5.515625 -6.0625 L 4.15625 -10.921875 Z M 5.40625 -11.765625 "/></g></g></g><g fill="#101664" fill-opacity="1"><g transform="translate(168.355505, 187.964197)"><g><path d="M -3.703125 -5.71875 L -2.484375 -6.734375 L 1.828125 -1.515625 L 0.609375 -0.5 Z M -3.703125 -5.71875 "/></g></g></g><g fill="#101664" fill-opacity="1"><g transform="translate(172.144829, 184.849228)"><g><path d="M 0.5 -4.171875 L 0.515625 -2.875 L 1.703125 -1.640625 L 0.578125 -0.546875 L -4.125 -5.421875 L -3 -6.515625 L -0.796875 -4.234375 L -0.84375 -8.59375 L 0.40625 -9.796875 L 0.484375 -5.6875 L 5.234375 -5.046875 L 3.921875 -3.78125 Z M 0.5 -4.171875 "/></g></g></g><g fill="#101664" fill-opacity="1"><g transform="translate(178.437294, 178.583977)"><g><path d="M -4.53125 -5.09375 L -3.484375 -6.28125 L 1.578125 -1.78125 L 0.53125 -0.59375 Z M -4.53125 -5.09375 "/></g></g></g></svg>